<?xml version="1.0" encoding="utf-8"?>
<!-- Generator: Adobe Illustrator 21.0.1, SVG Export Plug-In . SVG Version: 6.00 Build 0)  -->
<svg version="1.1" id="Layer_1" xmlns="http://www.w3.org/2000/svg" xmlns:xlink="http://www.w3.org/1999/xlink" x="0px" y="0px"
	 viewBox="0 0 337 300" style="enable-background:new 0 0 337 300;" xml:space="preserve">
<style type="text/css">
	.st0{fill:#D8D8D8;}
	.st1{fill:#999999;}
</style>
<path class="st0" d="M314.5,235.1H205.1c-6.2,0-11.3-5.1-11.3-11.3V150c0-6.2,5.1-11.3,11.3-11.3h109.4c6.2,0,11.3,5.1,11.3,11.3
	v73.8C325.8,230.1,320.7,235.1,314.5,235.1z M205.1,153.7c-1.3,0-2.3,1.1-2.3,2.3v67.8c0,1.3,1.1,2.3,2.3,2.3h109.4
	c1.3,0,2.3-1.1,2.3-2.3V156c0-1.3-1.1-2.3-2.3-2.3H205.1z"/>
<path class="st0" d="M324.6,246l-129,2.7c-1.7,0-3.2-1.4-3.2-3.1l0,0c0-1.7,1.4-3.2,3.1-3.2l129-2.7c1.7,0,3.2,1.4,3.2,3.1v0
	C327.7,244.5,326.3,246,324.6,246z"/>
<circle class="st1" cx="239" cy="147.3" r="2.8"/>
<path class="st1" d="M311.8,211.3H212c-1,0-1.8-0.8-1.8-1.8l0,0c0-1,0.8-1.8,1.8-1.8h99.8c1,0,1.8,0.8,1.8,1.8l0,0
	C313.5,210.5,312.7,211.3,311.8,211.3z"/>
<g>
	<path class="st1" d="M281.5,175.3l-3.6-0.7c-0.6-1.2-1.3-2.3-2.2-3.3l0.4-1.3c0.4-1.4-0.1-2.9-1.3-3.8c-1.2-0.9-2.8-0.9-4-0.1
		l-1.1,0.7c-1.2-0.5-2.5-0.9-3.8-1.1l-1.8-3.2c-0.7-1.3-2.2-2-3.6-1.8c-1.4,0.2-2.6,1.3-2.9,2.8l-0.7,3.6c-1.2,0.6-2.3,1.3-3.3,2.2
		l-1.3-0.4c-1.4-0.4-2.9,0.1-3.8,1.3c-0.9,1.2-0.9,2.8-0.1,4l0.7,1.1c-0.5,1.2-0.9,2.5-1.1,3.8l-3.2,1.8c-1.3,0.7-2,2.2-1.8,3.6
		c0.2,1.4,1.3,2.6,2.8,2.9l3.6,0.7c0.6,1.2,1.3,2.3,2.2,3.3l-0.4,1.3c-0.4,1.4,0.1,2.9,1.3,3.8c0.8,0.6,1.7,0.8,2.6,0.6
		c0.5-0.1,1-0.3,1.4-0.5l1.1-0.7c1.2,0.5,2.5,0.9,3.8,1.1l1.8,3.2c0.7,1.3,2.2,2,3.6,1.8c1.4-0.2,2.6-1.3,2.9-2.8l0.7-3.6
		c1.2-0.6,2.3-1.3,3.3-2.2l1.3,0.4c0.5,0.1,1,0.2,1.5,0.1c0.9-0.1,1.7-0.6,2.3-1.4c0.9-1.2,0.9-2.8,0.1-4l-0.7-1.1
		c0.5-1.2,0.9-2.5,1.1-3.8l3.2-1.8c1.3-0.7,2-2.2,1.8-3.6C284,176.8,282.9,175.6,281.5,175.3z M263.8,185.4
		c-1.1,1.7-2.6,2.8-4.5,3.1c-1.8,0.3-3.7-0.3-5.2-1.5c-3.1-2.7-3.9-7.6-1.7-11.1c0.1-0.2,0.4-0.2,0.6-0.1l10.7,9
		c0.1,0.1,0.2,0.2,0.2,0.3C263.9,185.2,263.9,185.3,263.8,185.4z M274.5,183.7c-1.1,1.7-2.6,2.8-4.5,3.1c-1.8,0.3-3.7-0.3-5.2-1.5
		c-0.1-0.1-0.2-0.2-0.2-0.3c0-0.1,0-0.2,0.1-0.3l7.5-11.9c0.1-0.2,0.4-0.2,0.6-0.1C275.9,175.3,276.7,180.3,274.5,183.7z"/>
</g>
</svg>
