<svg xmlns="http://www.w3.org/2000/svg" viewBox="0 0 26.2 26.2"><defs><style>.cls-1{fill:#fff;}</style></defs><title>Asset 4</title><g id="Layer_2" data-name="Layer 2"><g id="Capa_1" data-name="Capa 1"><g id="_Group_" data-name="&lt;Group&gt;"><g id="_Group_2" data-name="&lt;Group&gt;"><path id="_Compound_Path_" data-name="&lt;Compound Path&gt;" class="cls-1" d="M13.1,2.3c3.5,0,3.9,0,5.3.1a12.37,12.37,0,0,1,2.4.4,3.6,3.6,0,0,1,1.5,1,4.92,4.92,0,0,1,1,1.5,5.74,5.74,0,0,1,.4,2.4c.1,1.4.1,1.8.1,5.3s0,3.9-.1,5.3a12.37,12.37,0,0,1-.4,2.4,3.6,3.6,0,0,1-1,1.5,4.92,4.92,0,0,1-1.5,1,5.74,5.74,0,0,1-2.4.4c-1.4.1-1.8.1-5.3.1s-3.9,0-5.3-.1a12.37,12.37,0,0,1-2.4-.4,3.6,3.6,0,0,1-1.5-1,4.92,4.92,0,0,1-1-1.5,5.74,5.74,0,0,1-.4-2.4c-.1-1.4-.1-1.8-.1-5.3s0-3.9.1-5.3a12.37,12.37,0,0,1,.4-2.4,3.6,3.6,0,0,1,1-1.5,4.92,4.92,0,0,1,1.5-1,5.74,5.74,0,0,1,2.4-.4c1.4-.1,1.8-.1,5.3-.1m0-2.3c-3.5,0-4,0-5.4.1A12.16,12.16,0,0,0,4.5.7,5.74,5.74,0,0,0,2.2,2.2,5.74,5.74,0,0,0,.7,4.5,11.38,11.38,0,0,0,.1,7.7C0,9.1,0,9.5,0,13.1s0,4,.1,5.4a12.16,12.16,0,0,0,.6,3.2A5.74,5.74,0,0,0,2.2,24a5.74,5.74,0,0,0,2.3,1.5,11.38,11.38,0,0,0,3.2.6c1.4.1,1.8.1,5.4.1s4,0,5.4-.1a12.16,12.16,0,0,0,3.2-.6A5.74,5.74,0,0,0,24,24a5.74,5.74,0,0,0,1.5-2.3,11.38,11.38,0,0,0,.6-3.2c.1-1.4.1-1.8.1-5.4s0-4-.1-5.4a12.16,12.16,0,0,0-.6-3.2A5.74,5.74,0,0,0,24,2.2,5.74,5.74,0,0,0,21.7.7,11.38,11.38,0,0,0,18.5.1C17.1,0,16.7,0,13.1,0"/><path id="_Compound_Path_2" data-name="&lt;Compound Path&gt;" class="cls-1" d="M13.1,6.3A6.7,6.7,0,1,0,19.8,13a6.7,6.7,0,0,0-6.7-6.7m0,11A4.3,4.3,0,1,1,17.4,13a4.27,4.27,0,0,1-4.3,4.3"/><path id="_Path_" data-name="&lt;Path&gt;" class="cls-1" d="M21.6,6A1.6,1.6,0,1,1,20,4.4,1.72,1.72,0,0,1,21.6,6"/></g></g></g></g></svg>