<?xml version="1.0" encoding="utf-8"?>
<!-- Generator: Adobe Illustrator 21.0.1, SVG Export Plug-In . SVG Version: 6.00 Build 0)  -->
<svg version="1.1" id="Layer_1" xmlns="http://www.w3.org/2000/svg" xmlns:xlink="http://www.w3.org/1999/xlink" x="0px" y="0px"
	 viewBox="0 0 500 500" style="enable-background:new 0 0 500 500;" xml:space="preserve">
<style type="text/css">
	.st0{fill:#231F20;}
</style>
<g>
	<path class="st0" d="M251.6,29.2c11.5-2.1,23.4-3,35.4-2.8c12,0.2,24,1.8,35.9,4.3c23.8,5,46.9,14.9,67.8,28.5l7.8,5.3l7.5,5.7
		c1.3,0.9,2.5,1.9,3.7,2.9l3.6,3c2.4,2,4.7,4.2,7,6.3c9.2,8.6,17.7,18,25.2,28.2c15.1,20.4,26.9,43.4,34.2,68
		c14.8,49.2,11.8,103.2-7.3,150.8c-9.4,23.9-23,46-39.6,65.4c-8.3,9.8-17.4,18.7-27.2,26.9c-9.8,8.2-20.2,15.6-31.1,22.2
		c-43.9,26.1-96.3,36.8-146.3,30.5c-12.5-1.6-24.8-4.2-36.9-7.7c-3-0.9-6-1.8-9-2.8l-8.8-3.3c-1.5-0.5-2.9-1.2-4.3-1.8l-4.3-1.8
		c-2.9-1.2-5.7-2.6-8.5-4c-11.2-5.5-22-11.8-32.1-19.1c-10.1-7.2-19.6-15.3-28.3-24c-17.6-17.4-31.9-37.8-42.8-59.6
		c-5.4-11-9.7-22.4-13.2-34l-1.3-4.4c-0.4-1.5-0.9-2.9-1.2-4.4l-2.1-8.8c-1.1-5.9-2.2-11.9-2.9-17.9l-0.6-4.5l-0.3-4.5l-0.3-4.5
		l-0.2-2.2L31,263l-0.2-9l0.3-9l0.1-2.2l0.2-2.2l0.3-4.5l0.5-4.4c0.1-1.5,0.3-3,0.5-4.4c0.7-5.9,1.8-11.7,3-17.5
		c5-23.1,13.9-45.2,26.2-64.8l0.9,0.5c-4.4,10.7-8,21.5-10.7,32.6c-0.7,2.7-1.3,5.5-1.9,8.3c-0.5,2.8-1.1,5.6-1.5,8.4
		c-1,5.6-1.6,11.2-2.1,16.8c-0.8,11.2-1.1,22.4-0.2,33.5l0.7,8.3l1.1,8.2l0.3,2.1l0.4,2l0.8,4.1l0.7,4.1l1,4
		c4.8,21.5,13.4,41.9,24.5,60.4c5.6,9.2,12,18,19,26.2c3.4,4.1,7.2,8,10.9,11.9l5.8,5.6c1.9,1.8,4,3.5,6,5.3
		c16.3,13.8,34.5,25.2,54,33.2c19.5,8.1,40.1,12.8,60.9,14.4c10.4,0.7,20.9,0.5,31.2-0.3l7.8-0.8l7.7-1.2l1.9-0.3l1.9-0.4l3.8-0.8
		l3.8-0.8l3.8-1c5-1.2,10-2.8,14.9-4.3l7.3-2.6c1.2-0.4,2.4-1,3.6-1.4l3.6-1.5c9.5-4.1,18.6-8.9,27.3-14.3
		c8.7-5.5,16.9-11.7,24.6-18.5c7.7-6.8,14.9-14.1,21.4-22.1c6.5-7.9,12.3-16.3,17.5-25.1l3.8-6.7l3.4-6.8c0.6-1.1,1.1-2.3,1.6-3.5
		l1.6-3.5c0.5-1.2,1.1-2.3,1.5-3.5l1.4-3.6c7.5-19,11.5-39.2,12.7-59.6c0.4-10.2,0.1-20.4-0.9-30.6l-0.9-7.6l-1.2-7.5l-0.3-1.9
		l-0.4-1.9l-0.8-3.7l-0.8-3.7l-1-3.7c-4.9-19.8-13.2-38.9-23.9-56.6l-4.2-6.6c-1.4-2.2-3-4.3-4.4-6.4l-1.1-1.6l-1.2-1.6l-2.4-3.1
		c-0.8-1-1.6-2.1-2.4-3.1l-2.5-3c-6.7-8.1-14-15.8-21.9-22.8c-7.9-7.1-16.4-13.7-25.3-19.7c-8.9-6.1-18.5-11.4-28.4-16.1l-3.7-1.8
		c-1.3-0.6-2.5-1.1-3.8-1.7l-3.8-1.6l-1.9-0.8c-0.6-0.3-1.3-0.5-2-0.7c-2.6-1-5.2-2-7.8-3l-8-2.6c-10.8-3.4-21.9-6.1-33.4-8.4V29.2z
		"/>
</g>
<g>
	<circle class="st0" cx="250" cy="238.9" r="33.9"/>
	<path class="st0" d="M307.6,317.2c24.6-18,39.6-46.9,39.6-78.4c0-53.6-43.6-97.2-97.2-97.2s-97.2,43.6-97.2,97.2
		c0,32.4,16.5,62.5,42.6,80.4c10.4,7.1,23.2,2.2,27.1-8.1c3.9-10.3-2.9-22-12-30.6c-11.2-10.7-18-25.7-18-41.7
		c0-31.7,25.8-57.5,57.5-57.5c31.7,0,57.5,25.8,57.5,57.5c0,15.4-6.1,29.7-16.4,40.3c-8.8,9-15.2,20.9-10.9,31
		C284.4,320.2,297.4,324.6,307.6,317.2z"/>
	<path class="st0" d="M173.6,385.4c12.1,6.3,25.8,0.6,29.6-10.7c3.9-11.3-3.6-23.8-15.3-30.7c-36.7-21.6-60-61.4-60-105.2
		c0-67.3,54.8-122.1,122.1-122.1c67.3,0,122.1,54.8,122.1,122.1c0,43.3-23,82.8-59,104.6c-11.7,7-19,19.6-15,30.9
		c4,11.2,17.7,16.8,29.7,10.4c53.1-28.4,87.5-84.3,87.5-145.8c0-91.1-74.1-165.2-165.2-165.2S84.8,147.8,84.8,238.9
		C84.8,301.1,119.7,357.3,173.6,385.4z"/>
</g>
</svg>
