<?xml version="1.0" encoding="utf-8"?>
<!-- Generator: Adobe Illustrator 21.0.1, SVG Export Plug-In . SVG Version: 6.00 Build 0)  -->
<svg version="1.1" id="Layer_1" xmlns="http://www.w3.org/2000/svg" xmlns:xlink="http://www.w3.org/1999/xlink" x="0px" y="0px"
	 viewBox="0 0 227.4 108.8" style="enable-background:new 0 0 227.4 108.8;" xml:space="preserve">
<style type="text/css">
	.st0{fill:#F7F7F7;}
	.st1{fill:#FFFFFF;}
</style>
<title>Asset 1</title>
<g id="Layer_2">
	<g id="Layer_1-2">
		<path class="st0" d="M7.2,3.3c2.5,0,4.3,0.6,5.5,1.9s1.8,3.2,1.8,5.6v4c0,2.5-0.6,4.3-1.8,5.6c-1.2,1.3-3,1.9-5.5,1.9H4.9v11.5H0
			V3.3H7.2z M4.9,7.7V18h2.3c0.6,0,1.3-0.2,1.8-0.6c0.5-0.7,0.7-1.5,0.6-2.3v-4.6C9.7,9.8,9.4,9,8.9,8.3C8.5,7.9,7.8,7.7,7.2,7.7
			L4.9,7.7z"/>
		<path class="st0" d="M31.9,33.8H27l-0.9-5.5h-5.9l-0.9,5.5h-4.4l5-30.5h7.1L31.9,33.8z M20.8,24.2h4.7L23.1,8.8L20.8,24.2z"/>
		<path class="st0" d="M34.1,3.3H39v26.1h8v4.3H34.1V3.3z"/>
		<path class="st0" d="M49.3,3.3H57c2.5,0,4.3,0.6,5.5,1.9c1.2,1.3,1.8,3.2,1.8,5.6v15.4c0,2.5-0.6,4.3-1.8,5.6
			c-1.2,1.3-3,1.9-5.5,1.9h-7.7V3.3z M54.1,7.7v21.8h2.7c0.7,0,1.3-0.2,1.8-0.7c0.5-0.7,0.8-1.5,0.7-2.3V10.7
			c0.1-0.8-0.1-1.7-0.7-2.3c-0.5-0.5-1.1-0.7-1.8-0.7L54.1,7.7z"/>
		<path class="st0" d="M66.9,10.7c0-2.5,0.6-4.4,1.9-5.7c1.5-1.4,3.5-2.1,5.5-2c2-0.1,4,0.6,5.5,2c1.3,1.3,1.9,3.2,1.9,5.7v15.9
			c0,2.5-0.6,4.4-1.9,5.7c-1.5,1.4-3.5,2.1-5.5,2c-2,0.1-4-0.6-5.5-2c-1.3-1.3-1.9-3.2-1.9-5.7L66.9,10.7z M71.8,26.8
			c-0.1,0.8,0.2,1.7,0.7,2.3c1.1,0.9,2.6,0.9,3.7,0c0.5-0.7,0.8-1.5,0.7-2.3V10.4C77,9.5,76.7,8.7,76.2,8c-1.1-0.9-2.6-0.9-3.7,0
			c-0.5,0.7-0.8,1.5-0.7,2.3L71.8,26.8z"/>
		<path class="st0" d="M4.9,71.5H0V41h4.9v13h5.5V41h5v30.5h-4.9v-13H4.9V71.5z"/>
		<path class="st0" d="M18.5,48.3c0-2.5,0.6-4.4,1.9-5.7c1.5-1.4,3.5-2.1,5.5-2c2-0.1,4,0.6,5.5,2c1.3,1.3,1.9,3.2,1.9,5.7v15.9
			c0,2.5-0.6,4.4-1.9,5.7c-1.5,1.4-3.5,2.1-5.5,2c-2,0.1-4-0.6-5.5-2c-1.3-1.3-1.9-3.2-1.9-5.7L18.5,48.3z M23.4,64.5
			c-0.1,0.8,0.2,1.7,0.7,2.3c1.1,0.9,2.6,0.9,3.7,0c0.5-0.7,0.8-1.5,0.7-2.3V48c0.1-0.8-0.2-1.7-0.7-2.3c-1.1-0.9-2.6-0.9-3.7,0
			c-0.5,0.7-0.8,1.5-0.7,2.3L23.4,64.5z"/>
		<path class="st0" d="M35.1,41h15v4.3h-5.1v26.1h-4.9V45.4h-5.1V41z"/>
		<path class="st0" d="M51.8,48.3c0-2.5,0.6-4.4,1.8-5.7s3-2,5.4-2c2.4,0,4.2,0.7,5.4,2c1.2,1.3,1.8,3.2,1.8,5.7v1.2h-4.6V48
			c0.1-0.8-0.1-1.7-0.6-2.3c-1-0.9-2.6-0.9-3.6,0c-0.5,0.7-0.7,1.5-0.6,2.3c0,1,0.2,1.9,0.7,2.8c0.5,0.8,1.1,1.6,1.8,2.3
			c0.7,0.7,1.5,1.4,2.3,2.1c0.8,0.7,1.6,1.5,2.3,2.3c0.7,0.9,1.3,1.8,1.8,2.9c0.5,1.2,0.7,2.5,0.7,3.8c0,2.5-0.6,4.4-1.8,5.7
			c-1.2,1.3-3,2-5.4,2s-4.2-0.7-5.4-2c-1.2-1.3-1.8-3.2-1.8-5.7v-2.1h4.6v2.4c-0.1,0.8,0.2,1.7,0.7,2.3c1.1,0.9,2.6,0.9,3.7,0
			c0.5-0.7,0.8-1.5,0.7-2.3c0-1-0.2-1.9-0.7-2.8c-0.5-0.8-1.1-1.6-1.8-2.3c-0.7-0.7-1.5-1.4-2.3-2.1c-0.8-0.7-1.6-1.5-2.3-2.3
			c-0.7-0.9-1.3-1.8-1.8-2.9C52,50.9,51.8,49.6,51.8,48.3z"/>
		<path class="st0" d="M76.1,41c2.5,0,4.3,0.6,5.5,1.9c1.2,1.3,1.8,3.2,1.8,5.6v4c0,2.5-0.6,4.3-1.8,5.6c-1.2,1.3-3,1.9-5.5,1.9
			h-2.3v11.4h-4.9V41H76.1z M73.8,45.4v10.3h2.3c0.6,0,1.3-0.2,1.8-0.6c0.5-0.7,0.7-1.5,0.6-2.3v-4.6c0.1-0.8-0.1-1.6-0.6-2.3
			c-0.5-0.4-1.1-0.6-1.8-0.6L73.8,45.4z"/>
		<path class="st0" d="M85.3,48.3c0-2.5,0.6-4.4,1.9-5.7c1.5-1.4,3.5-2.1,5.5-2c2-0.1,4,0.6,5.5,2c1.3,1.3,1.9,3.2,1.9,5.7v15.9
			c0,2.5-0.6,4.4-1.9,5.7c-1.5,1.4-3.5,2.1-5.5,2c-2,0.1-4-0.6-5.5-2c-1.3-1.3-1.9-3.2-1.9-5.7V48.3z M90.1,64.5
			c-0.1,0.8,0.2,1.7,0.7,2.3c1.1,0.9,2.6,0.9,3.7,0c0.5-0.7,0.8-1.5,0.7-2.3V48c0.1-0.8-0.2-1.7-0.7-2.3c-1.1-0.9-2.6-0.9-3.7,0
			c-0.5,0.7-0.8,1.5-0.7,2.3V64.5z"/>
		<path class="st0" d="M101.9,41h15v4.3h-5.1v26.1h-4.9V45.4h-5.1L101.9,41z"/>
		<path class="st1" d="M0.7,88c0-0.4,0-0.8,0.2-1.2c0.1-0.4,0.3-0.7,0.5-1c0.2-0.3,0.5-0.5,0.8-0.6c0.4-0.2,0.8-0.2,1.2-0.2
			c0.4,0,0.8,0.1,1.2,0.2c0.3,0.1,0.6,0.4,0.9,0.6c0.2,0.3,0.4,0.6,0.5,1c0.1,0.4,0.2,0.8,0.2,1.2v6.2c0,0.4,0,0.8-0.2,1.2
			c-0.1,0.4-0.3,0.7-0.5,1c-0.2,0.3-0.5,0.5-0.9,0.6c-0.4,0.2-0.8,0.2-1.2,0.2c-0.4,0-0.8-0.1-1.2-0.2c-0.3-0.1-0.6-0.4-0.8-0.6
			c-0.2-0.3-0.4-0.6-0.5-1c-0.1-0.4-0.2-0.8-0.2-1.2V88z M1.5,94.3c0,0.6,0.1,1.1,0.4,1.6c0.3,0.5,0.9,0.7,1.4,0.7
			c0.6,0,1.1-0.2,1.5-0.7c0.3-0.5,0.5-1.1,0.5-1.6V88c0-0.6-0.1-1.1-0.5-1.6c-0.3-0.5-0.9-0.7-1.5-0.7c-0.6-0.1-1.1,0.2-1.4,0.7
			c-0.3,0.5-0.5,1.1-0.4,1.6L1.5,94.3z"/>
		<path class="st1" d="M8.2,97.2H7.4V85h1.1l3.7,10.2V85.1h0.7v12.2H12L8.2,86.4V97.2z"/>
		<path class="st1" d="M14.3,97.2V85h0.8v11.4H19v0.7L14.3,97.2z"/>
		<path class="st1" d="M21,85.1v12.2h-0.8V85.1H21z"/>
		<path class="st1" d="M23.2,97.2h-0.7V85h1.1l3.7,10.2V85.1h0.7v12.2H27l-3.9-10.9V97.2z"/>
		<path class="st1" d="M33.5,90.7v0.7h-3.4v5.1h4v0.7h-4.9V85h4.9v0.7h-4v4.9L33.5,90.7z"/>
		<path class="st1" d="M40.8,85c0.4,0,0.8,0.1,1.2,0.2c0.3,0.1,0.6,0.4,0.8,0.6c0.2,0.3,0.4,0.6,0.4,1c0.1,0.4,0.2,0.8,0.2,1.2v0.9
			h-0.8v-1c0-0.3,0-0.6-0.1-0.9c-0.1-0.3-0.2-0.5-0.3-0.7c-0.2-0.2-0.4-0.4-0.6-0.5c-0.6-0.2-1.2-0.2-1.8,0
			c-0.2,0.1-0.4,0.3-0.6,0.5c-0.2,0.2-0.3,0.5-0.3,0.7c-0.1,0.3-0.1,0.6-0.1,0.9v6.3c0,0.3,0,0.6,0.1,0.9c0.1,0.3,0.2,0.5,0.3,0.7
			c0.2,0.2,0.4,0.4,0.6,0.5c0.6,0.2,1.2,0.2,1.8,0c0.2-0.1,0.4-0.3,0.6-0.5c0.2-0.2,0.3-0.5,0.3-0.7c0.1-0.3,0.1-0.6,0.1-0.9v-2.6
			h-1.6v-0.7h2.4v3.3c0,0.4,0,0.8-0.2,1.2c-0.1,0.4-0.3,0.7-0.5,1c-0.2,0.3-0.5,0.5-0.8,0.6c-0.8,0.3-1.6,0.3-2.4,0
			c-0.3-0.1-0.6-0.4-0.8-0.6c-0.2-0.3-0.4-0.6-0.5-1c-0.1-0.4-0.2-0.8-0.2-1.2V88c0-0.4,0-0.8,0.2-1.2c0.1-0.4,0.3-0.7,0.5-1
			c0.2-0.3,0.5-0.5,0.8-0.6C40,85,40.4,84.9,40.8,85z"/>
		<path class="st1" d="M46,94.5l-0.6,2.7h-0.7L47.3,85h1.2l2.7,12.2h-0.8l-0.6-2.7H46z M46.1,93.8h3.6L47.9,86L46.1,93.8z"/>
		<path class="st1" d="M56.6,97.2h-0.8l-2.6-10.7v10.7h-0.7V85h1.2l2.6,10.7L58.8,85H60v12.2h-0.8V86.4L56.6,97.2z"/>
		<path class="st1" d="M65.6,90.7v0.7h-3.4v5.1h4.1v0.7h-4.9V85h4.9v0.7h-4.1v4.9L65.6,90.7z"/>
		<path class="st1" d="M70.2,85c0.4,0,0.8,0.1,1.2,0.2c0.3,0.1,0.6,0.4,0.8,0.6c0.2,0.3,0.4,0.6,0.5,1c0.1,0.4,0.2,0.8,0.2,1.2v0.3
			H72v-0.3c0-0.3,0-0.6-0.1-0.9c-0.1-0.3-0.2-0.5-0.3-0.7c-0.1-0.2-0.3-0.4-0.6-0.5c-0.3-0.1-0.6-0.2-0.9-0.2
			c-0.6-0.1-1.1,0.2-1.4,0.6c-0.3,0.5-0.4,1-0.4,1.6c0,0.4,0.1,0.9,0.3,1.3c0.2,0.4,0.5,0.7,0.8,0.9c0.3,0.3,0.7,0.6,1.1,0.8
			c0.4,0.3,0.7,0.6,1.1,0.9c0.3,0.3,0.6,0.7,0.8,1.1c0.2,0.4,0.3,0.9,0.3,1.4c0,0.4,0,0.8-0.2,1.2c-0.1,0.4-0.3,0.7-0.5,1
			c-0.2,0.3-0.5,0.5-0.8,0.6c-0.8,0.3-1.6,0.3-2.4,0c-0.3-0.1-0.6-0.4-0.8-0.6c-0.2-0.3-0.4-0.6-0.5-1c-0.1-0.4-0.2-0.8-0.2-1.2
			v-0.6h0.8v0.7c0,0.6,0.1,1.1,0.4,1.6c0.7,0.8,1.9,0.8,2.7,0.1c0.1,0,0.1-0.1,0.1-0.1c0.3-0.5,0.4-1,0.4-1.6c0-0.4-0.1-0.9-0.3-1.2
			c-0.2-0.4-0.5-0.7-0.8-0.9c-0.3-0.3-0.7-0.6-1.1-0.8c-0.4-0.3-0.7-0.6-1.1-0.9c-0.3-0.3-0.6-0.7-0.8-1.1c-0.2-0.4-0.3-0.9-0.3-1.4
			c0-0.8,0.2-1.5,0.6-2.2C68.6,85.2,69.4,84.9,70.2,85z"/>
		<path class="st1" d="M78.7,84.6v12.9H78V84.6H78.7z"/>
		<path class="st1" d="M86.6,85.1c0.7-0.1,1.4,0.2,2,0.7c0.4,0.6,0.6,1.2,0.6,1.9v0.7c0,0.6-0.1,1.1-0.3,1.6
			c-0.3,0.4-0.8,0.7-1.3,0.8c0.6,0.1,1.1,0.4,1.4,0.9c0.3,0.5,0.4,1.1,0.4,1.7v1.1c0,0.7-0.2,1.5-0.6,2.1c-0.5,0.5-1.3,0.8-2.1,0.7
			H84V85L86.6,85.1z M86.2,90.4c0.3,0,0.6,0,0.9-0.1c0.2,0,0.5-0.2,0.7-0.3c0.2-0.2,0.3-0.4,0.4-0.6c0.1-0.3,0.1-0.6,0.1-0.9v-0.8
			c0-0.5-0.1-1-0.4-1.4c-0.3-0.4-0.8-0.5-1.4-0.5h-1.8v4.6L86.2,90.4z M86.6,96.5c0.5,0,1.1-0.1,1.4-0.5c0.3-0.5,0.5-1,0.4-1.6v-1.1
			c0.1-0.6-0.1-1.2-0.5-1.7c-0.5-0.4-1-0.5-1.6-0.5h-1.5v5.3L86.6,96.5z"/>
		<path class="st1" d="M93.2,85.1c0.8-0.1,1.5,0.2,2,0.7c0.4,0.6,0.7,1.3,0.6,2v1.1c0,1.4-0.6,2.2-1.8,2.5c0.6,0.1,1,0.4,1.4,0.9
			c0.3,0.5,0.4,1.1,0.4,1.6v1.9c0,0.3,0,0.5,0.1,0.8c0,0.2,0.1,0.5,0.2,0.7h-0.9c-0.1-0.2-0.2-0.4-0.2-0.6c0-0.3-0.1-0.6-0.1-0.9
			v-1.9c0-0.3,0-0.7-0.2-1c-0.1-0.2-0.3-0.5-0.5-0.6c-0.2-0.2-0.5-0.3-0.7-0.3c-0.3-0.1-0.6-0.1-1-0.1h-1.3v5.4h-0.8V85L93.2,85.1z
			 M92.7,91c0.3,0,0.7,0,1-0.1c0.3,0,0.5-0.2,0.7-0.3c0.2-0.2,0.4-0.4,0.5-0.6c0.1-0.3,0.2-0.7,0.2-1v-1.1c0-0.5-0.1-1.1-0.4-1.5
			c-0.4-0.4-0.9-0.6-1.4-0.5h-1.8V91L92.7,91z"/>
		<path class="st1" d="M97.4,88c0-0.4,0-0.8,0.2-1.2c0.1-0.4,0.3-0.7,0.5-1c0.2-0.3,0.5-0.5,0.8-0.6c0.4-0.2,0.8-0.2,1.2-0.2
			c0.4,0,0.8,0.1,1.2,0.2c0.3,0.1,0.6,0.4,0.9,0.6c0.2,0.3,0.4,0.6,0.5,1c0.1,0.4,0.2,0.8,0.2,1.2v6.2c0,0.4,0,0.8-0.2,1.2
			c-0.1,0.4-0.3,0.7-0.5,1c-0.2,0.3-0.5,0.5-0.9,0.6c-0.4,0.2-0.8,0.2-1.2,0.2c-0.4,0-0.8-0.1-1.2-0.2c-0.3-0.1-0.6-0.4-0.8-0.6
			c-0.2-0.3-0.4-0.6-0.5-1c-0.1-0.4-0.2-0.8-0.2-1.2L97.4,88z M98.2,94.3c0,0.6,0.1,1.1,0.4,1.6c0.3,0.5,0.9,0.7,1.4,0.7
			c0.6,0,1.1-0.2,1.5-0.7c0.3-0.5,0.5-1.1,0.5-1.6V88c0-0.6-0.1-1.1-0.5-1.6c-0.3-0.5-0.9-0.7-1.5-0.7c-0.6-0.1-1.1,0.2-1.4,0.7
			c-0.3,0.5-0.5,1.1-0.4,1.6V94.3z"/>
		<path class="st1" d="M107.1,97.2H106L104,85h0.8l1.8,11.1l1.8-11h0.9l1.8,11l1.8-11h0.7l-2,12.2h-1.1l-1.7-9.9L107.1,97.2z"/>
		<path class="st1" d="M117.3,85c0.4,0,0.8,0.1,1.2,0.2c0.3,0.1,0.6,0.4,0.8,0.6c0.2,0.3,0.4,0.6,0.5,1c0.1,0.4,0.2,0.8,0.2,1.2v0.3
			h-0.8v-0.3c0-0.3,0-0.6-0.1-0.9c-0.1-0.3-0.2-0.5-0.3-0.7c-0.1-0.2-0.3-0.4-0.6-0.5c-0.3-0.1-0.6-0.2-0.9-0.2
			c-0.6-0.1-1.1,0.2-1.4,0.6c-0.3,0.5-0.4,1-0.4,1.6c0,0.4,0.1,0.9,0.3,1.3c0.2,0.4,0.5,0.7,0.8,0.9c0.3,0.3,0.7,0.6,1.1,0.8
			c0.4,0.3,0.7,0.6,1.1,0.9c0.3,0.3,0.6,0.7,0.8,1.1c0.2,0.4,0.3,0.9,0.3,1.4c0,0.4,0,0.8-0.2,1.2c-0.1,0.4-0.3,0.7-0.5,1
			c-0.2,0.3-0.5,0.5-0.8,0.6c-0.8,0.3-1.6,0.3-2.4,0c-0.3-0.1-0.6-0.4-0.8-0.6c-0.2-0.3-0.4-0.6-0.5-1c-0.1-0.4-0.2-0.8-0.2-1.2
			v-0.6h0.8v0.7c0,0.6,0.1,1.1,0.4,1.6c0.7,0.8,1.9,0.8,2.7,0.1c0.1,0,0.1-0.1,0.1-0.1c0.3-0.5,0.4-1,0.4-1.6c0-0.4-0.1-0.9-0.3-1.2
			c-0.2-0.4-0.5-0.7-0.8-0.9c-0.3-0.3-0.7-0.6-1.1-0.8c-0.4-0.3-0.7-0.6-1.1-0.9c-0.3-0.3-0.6-0.7-0.8-1.1c-0.2-0.4-0.3-0.9-0.3-1.4
			c0-0.8,0.2-1.5,0.6-2.2C115.8,85.2,116.5,84.9,117.3,85z"/>
		<path class="st1" d="M122.1,85.1v12.2h-0.8V85.1H122.1z"/>
		<path class="st1" d="M124.2,97.2h-0.7V85h1.1l3.7,10.2V85.1h0.7v12.2h-0.9l-3.9-10.8L124.2,97.2z"/>
		<path class="st1" d="M133,85c0.4,0,0.8,0.1,1.2,0.2c0.3,0.1,0.6,0.4,0.8,0.6c0.2,0.3,0.4,0.6,0.5,1c0.1,0.4,0.2,0.8,0.2,1.2v0.9
			h-0.8v-1c0-0.3,0-0.6-0.1-0.9c-0.1-0.3-0.2-0.5-0.3-0.7c-0.2-0.2-0.4-0.4-0.6-0.5c-0.6-0.2-1.2-0.2-1.8,0
			c-0.2,0.1-0.4,0.3-0.6,0.5c-0.2,0.2-0.3,0.5-0.3,0.7c-0.1,0.3-0.1,0.6-0.1,0.9v6.3c0,0.3,0,0.6,0.1,0.9c0.1,0.3,0.2,0.5,0.3,0.7
			c0.2,0.2,0.4,0.4,0.6,0.5c0.6,0.2,1.2,0.2,1.8,0c0.2-0.1,0.4-0.3,0.6-0.5c0.2-0.2,0.3-0.5,0.3-0.7c0.1-0.3,0.1-0.6,0.1-0.9v-2.6
			h-1.6v-0.7h2.4v3.3c0,0.4,0,0.8-0.2,1.2c-0.1,0.4-0.3,0.7-0.5,1c-0.2,0.3-0.5,0.5-0.8,0.6c-0.8,0.3-1.6,0.3-2.4,0
			c-0.3-0.1-0.6-0.4-0.8-0.6c-0.2-0.3-0.4-0.6-0.5-1c-0.1-0.4-0.2-0.8-0.2-1.2V88c0-0.4,0-0.8,0.2-1.2c0.1-0.4,0.3-0.7,0.5-1
			c0.2-0.3,0.5-0.5,0.8-0.6C132.2,85,132.6,84.9,133,85z"/>
		<path class="st1" d="M141.6,84.6v12.9h-0.7V84.6H141.6z"/>
		<path class="st1" d="M146.7,85c0.4,0,0.8,0.1,1.2,0.2c0.3,0.1,0.6,0.4,0.8,0.6c0.2,0.3,0.4,0.6,0.5,1c0.1,0.4,0.2,0.8,0.2,1.2v0.3
			h-0.8v-0.3c0-0.3,0-0.6-0.1-0.9c-0.1-0.3-0.2-0.5-0.3-0.7c-0.1-0.2-0.3-0.4-0.6-0.5c-0.3-0.1-0.6-0.2-0.9-0.2
			c-0.6-0.1-1.1,0.2-1.4,0.6c-0.3,0.5-0.4,1-0.4,1.6c0,0.4,0.1,0.9,0.3,1.3c0.2,0.4,0.5,0.7,0.8,0.9c0.3,0.3,0.7,0.6,1.1,0.8
			c0.4,0.3,0.7,0.6,1.1,0.9c0.3,0.3,0.6,0.7,0.8,1.1c0.2,0.4,0.4,0.9,0.4,1.4c0,0.4,0,0.8-0.2,1.2c-0.1,0.4-0.3,0.7-0.5,1
			c-0.2,0.3-0.5,0.5-0.8,0.6c-0.8,0.3-1.6,0.3-2.4,0c-0.3-0.1-0.6-0.4-0.8-0.6c-0.2-0.3-0.4-0.6-0.5-1c-0.1-0.4-0.1-0.8-0.1-1.2
			v-0.6h0.8v0.7c0,0.6,0.1,1.1,0.4,1.6c0.7,0.8,1.9,0.8,2.7,0.1c0.1,0,0.1-0.1,0.1-0.1c0.3-0.5,0.4-1,0.4-1.6c0-0.4-0.1-0.9-0.3-1.2
			c-0.2-0.4-0.5-0.7-0.8-0.9c-0.3-0.3-0.7-0.6-1.1-0.8c-0.4-0.3-0.7-0.6-1.1-0.9c-0.3-0.3-0.6-0.7-0.8-1.1c-0.2-0.4-0.3-0.9-0.3-1.4
			c0-0.8,0.2-1.5,0.6-2.2C145.2,85.2,146,84.9,146.7,85z"/>
		<path class="st1" d="M152.7,97.2V85.8h-2.5v-0.7h5.8v0.7h-2.5v11.4H152.7z"/>
		<path class="st1" d="M159.6,85.1c0.8-0.1,1.5,0.2,2,0.7c0.4,0.6,0.7,1.3,0.6,2v1.1c0,1.4-0.6,2.2-1.8,2.5c0.6,0.1,1,0.4,1.4,0.9
			c0.3,0.5,0.4,1.1,0.4,1.6v1.9c0,0.3,0,0.5,0.1,0.8c0,0.2,0.1,0.5,0.2,0.7h-0.9c-0.1-0.2-0.2-0.4-0.2-0.6c0-0.3-0.1-0.6-0.1-0.9
			v-1.9c0-0.3,0-0.7-0.2-1c-0.1-0.2-0.3-0.5-0.5-0.6c-0.2-0.2-0.5-0.3-0.7-0.3c-0.3-0.1-0.6-0.1-1-0.1h-1.3v5.4H157V85L159.6,85.1z
			 M159.2,91c0.3,0,0.7,0,1-0.1c0.3,0,0.5-0.2,0.7-0.3c0.2-0.2,0.4-0.4,0.5-0.6c0.1-0.3,0.2-0.7,0.2-1v-1.1c0-0.5-0.1-1.1-0.4-1.5
			c-0.4-0.4-0.9-0.6-1.4-0.5h-1.8V91L159.2,91z"/>
		<path class="st1" d="M168,90.7v0.7h-3.4v5.1h4v0.7h-4.9V85h4.9v0.7h-4v4.9L168,90.7z"/>
		<path class="st1" d="M171.2,94.5l-0.6,2.7h-0.7l2.7-12.2h1.2l2.7,12.2h-0.8l-0.6-2.7H171.2z M171.3,93.8h3.6l-1.8-7.8L171.3,93.8z
			"/>
		<path class="st1" d="M181.9,97.2H181l-2.7-10.7v10.7h-0.7V85h1.2l2.6,10.7L184,85h1.2v12.2h-0.8V86.4L181.9,97.2z"/>
		<path class="st1" d="M187.4,85.1v12.2h-0.8V85.1H187.4z"/>
		<path class="st1" d="M189.6,97.2h-0.7V85h1.1l3.7,10.3V85.1h0.7v12.2h-0.9l-3.8-10.9V97.2z"/>
		<path class="st1" d="M198.3,85c0.4,0,0.8,0.1,1.2,0.2c0.3,0.1,0.6,0.4,0.8,0.6c0.2,0.3,0.4,0.6,0.5,1c0.1,0.4,0.2,0.8,0.2,1.2v0.9
			h-0.8v-1c0-0.3,0-0.6-0.1-0.9c-0.1-0.3-0.2-0.5-0.3-0.7c-0.2-0.2-0.4-0.4-0.6-0.5c-0.6-0.2-1.2-0.2-1.8,0
			c-0.2,0.1-0.4,0.3-0.6,0.5c-0.2,0.2-0.3,0.5-0.3,0.7c-0.1,0.3-0.1,0.6-0.1,0.9v6.3c0,0.3,0,0.6,0.1,0.9c0.1,0.3,0.2,0.5,0.3,0.7
			c0.2,0.2,0.4,0.4,0.6,0.5c0.6,0.2,1.2,0.2,1.8,0c0.2-0.1,0.4-0.3,0.6-0.5c0.2-0.2,0.3-0.5,0.3-0.7c0.1-0.3,0.1-0.6,0.1-0.9v-2.6
			h-1.6v-0.7h2.4v3.3c0,0.4,0,0.8-0.2,1.2c-0.1,0.4-0.3,0.7-0.5,1c-0.2,0.3-0.5,0.5-0.8,0.6c-0.8,0.3-1.6,0.3-2.4,0
			c-0.3-0.1-0.6-0.4-0.8-0.6c-0.2-0.3-0.4-0.6-0.5-1c-0.1-0.4-0.2-0.8-0.2-1.2V88c0-0.4,0-0.8,0.2-1.2c0.1-0.4,0.3-0.7,0.5-1
			c0.2-0.3,0.5-0.5,0.8-0.6C197.5,85,197.9,84.9,198.3,85z"/>
	</g>
</g>
</svg>
