<?xml version="1.0" encoding="utf-8"?>
<!-- Generator: Adobe Illustrator 21.0.1, SVG Export Plug-In . SVG Version: 6.00 Build 0)  -->
<svg version="1.1" id="Layer_1" xmlns="http://www.w3.org/2000/svg" xmlns:xlink="http://www.w3.org/1999/xlink" x="0px" y="0px"
	 viewBox="0 0 450 785.9" style="enable-background:new 0 0 450 785.9;" xml:space="preserve">
<style type="text/css">
	.st0{fill:url(#SVGID_1_);}
	.st1{opacity:0.46;fill:url(#SVGID_2_);enable-background:new    ;}
	.st2{opacity:0.46;fill:url(#SVGID_3_);enable-background:new    ;}
	.st3{opacity:0.46;fill:url(#SVGID_4_);enable-background:new    ;}
	.st4{fill:url(#SVGID_5_);}
	.st5{fill:url(#SVGID_6_);}
	.st6{opacity:0.28;fill:#15202B;enable-background:new    ;}
	.st7{opacity:0.22;}
	.st8{fill:#FFFFFF;}
</style>
<g>
	
		<linearGradient id="SVGID_1_" gradientUnits="userSpaceOnUse" x1="225" y1="59.5893" x2="225" y2="701.2994" gradientTransform="matrix(1 0 0 -1 0 786)">
		<stop  offset="0" style="stop-color:#1D0E3D"/>
		<stop  offset="1" style="stop-color:#0F051D"/>
	</linearGradient>
	<rect class="st0" width="450" height="785.9"/>
</g>
<radialGradient id="SVGID_2_" cx="821.8267" cy="749.0464" r="571.3625" gradientTransform="matrix(-0.9163 0.4004 0.4004 0.9163 899.4252 -246.674)" gradientUnits="userSpaceOnUse">
	<stop  offset="0" style="stop-color:#00FFEE"/>
	<stop  offset="6.675065e-02" style="stop-color:#03E2D8;stop-opacity:0.9332"/>
	<stop  offset="0.2071" style="stop-color:#09AAAE;stop-opacity:0.7929"/>
	<stop  offset="0.3483" style="stop-color:#0F7989;stop-opacity:0.6517"/>
	<stop  offset="0.4871" style="stop-color:#13526C;stop-opacity:0.5129"/>
	<stop  offset="0.6233" style="stop-color:#173355;stop-opacity:0.3767"/>
	<stop  offset="0.7559" style="stop-color:#191E44;stop-opacity:0.2441"/>
	<stop  offset="0.8833" style="stop-color:#1B103A;stop-opacity:0.1167"/>
	<stop  offset="1" style="stop-color:#1B0C37;stop-opacity:0"/>
</radialGradient>
<path class="st1" d="M-150.2,789.7c-79.3-181.4,24.5-401.9,231.7-492.4S521,280.4,600.3,461.8s-24.5,401.9-231.7,492.4
	S-71,971.1-150.2,789.7z"/>
<radialGradient id="SVGID_3_" cx="1095.6073" cy="-16.6598" r="571.3625" gradientTransform="matrix(0.134 -0.9909 -0.9909 -0.134 -322.5345 1551.3031)" gradientUnits="userSpaceOnUse">
	<stop  offset="0" style="stop-color:#00FFEE"/>
	<stop  offset="6.675065e-02" style="stop-color:#03E2D8;stop-opacity:0.9332"/>
	<stop  offset="0.2071" style="stop-color:#09AAAE;stop-opacity:0.7929"/>
	<stop  offset="0.3483" style="stop-color:#0F7989;stop-opacity:0.6517"/>
	<stop  offset="0.4871" style="stop-color:#13526C;stop-opacity:0.5129"/>
	<stop  offset="0.6233" style="stop-color:#173355;stop-opacity:0.3767"/>
	<stop  offset="0.7559" style="stop-color:#191E44;stop-opacity:0.2441"/>
	<stop  offset="0.8833" style="stop-color:#1B103A;stop-opacity:0.1167"/>
	<stop  offset="1" style="stop-color:#1B0C37;stop-opacity:0"/>
</radialGradient>
<path class="st2" d="M132.9-52.7C329.1-26.2,463.6,177,433.2,401.1C402.9,625.2,219.3,785.4,23.1,758.9
	c-196.2-26.5-330.6-229.8-300.3-453.8S-63.2-79.3,132.9-52.7z"/>
<radialGradient id="SVGID_4_" cx="671.1535" cy="-1075.7074" r="571.3625" gradientTransform="matrix(0.4342 0.9008 0.9008 -0.4342 1272.5176 -1096.5444)" gradientUnits="userSpaceOnUse">
	<stop  offset="0" style="stop-color:#00FFEE"/>
	<stop  offset="6.675065e-02" style="stop-color:#03E2D8;stop-opacity:0.9332"/>
	<stop  offset="0.2071" style="stop-color:#09AAAE;stop-opacity:0.7929"/>
	<stop  offset="0.3483" style="stop-color:#0F7989;stop-opacity:0.6517"/>
	<stop  offset="0.4871" style="stop-color:#13526C;stop-opacity:0.5129"/>
	<stop  offset="0.6233" style="stop-color:#173355;stop-opacity:0.3767"/>
	<stop  offset="0.7559" style="stop-color:#191E44;stop-opacity:0.2441"/>
	<stop  offset="0.8833" style="stop-color:#1B103A;stop-opacity:0.1167"/>
	<stop  offset="1" style="stop-color:#1B0C37;stop-opacity:0"/>
</radialGradient>
<path class="st3" d="M638.2,570.5c-178.3,86-402.5-9.5-500.7-213.2S104.2-81.3,282.6-167.3s402.5,9.5,500.7,213.2
	S816.5,484.6,638.2,570.5z"/>
<g>
	
		<linearGradient id="SVGID_5_" gradientUnits="userSpaceOnUse" x1="593.1" y1="33.0312" x2="225" y2="33.0312" gradientTransform="matrix(1 0 0 -1 0 786)">
		<stop  offset="0" style="stop-color:#00FFEE"/>
		<stop  offset="1" style="stop-color:#D585FF"/>
	</linearGradient>
	<path class="st4" d="M527.9,643.8c-28.2-2.9-57.8-1.5-87.6,4.8c1.3,23.3-10.9,45-17.4,67.5c-1.4,4.8-2.5,9.8-5.4,13.9
		c-9.8,14-33.9,11.2-43.3,25.5c-2.9,4.4-3.9,9.9-6.6,14.5c-9.6,16.1-15-5.4-10.5-14.6c4.7-9.7,16.8-12.5,26.8-16.6
		c15.5-6.3,29.3-19.4,31.4-36c0.5-3.7,0.4-7.6,1.6-11.2c1.8-5.5,6.5-9.7,8.1-15.3c2.3-7.6-1.5-15.4-3.3-23.2
		c-5.7,1.6-11.5,3.4-17.2,5.3C303.3,693.1,234.9,776,225,863.5h368.1L527.9,643.8z"/>
	
		<linearGradient id="SVGID_6_" gradientUnits="userSpaceOnUse" x1="593.1" y1="73.754" x2="225.1575" y2="73.754" gradientTransform="matrix(1 0 0 -1 0 786)">
		<stop  offset="0" style="stop-color:#00FFEE"/>
		<stop  offset="1" style="stop-color:#D585FF"/>
	</linearGradient>
	<path class="st5" d="M425.1,676.3c-1.7,5.5-6.3,9.8-8.1,15.3c-1.2,3.6-1.1,7.4-1.6,11.2c-2.2,16.6-16,29.7-31.4,36
		c-10,4.1-22.1,6.9-26.8,16.6c-4.5,9.2,0.9,30.7,10.5,14.6c2.7-4.6,3.7-10,6.6-14.5c9.3-14.3,33.5-11.5,43.3-25.5
		c2.9-4.1,4-9.1,5.4-13.9c6.5-22.5,18.7-44.2,17.4-67.5c-6.2,1.3-12.3,2.8-18.5,4.5C423.6,660.9,427.4,668.7,425.1,676.3z"/>
	<path class="st6" d="M425.1,676.3c-1.7,5.5-6.3,9.8-8.1,15.3c-1.2,3.6-1.1,7.4-1.6,11.2c-2.2,16.6-16,29.7-31.4,36
		c-10,4.1-22.1,6.9-26.8,16.6c-4.5,9.2,0.9,30.7,10.5,14.6c2.7-4.6,3.7-10,6.6-14.5c9.3-14.3,33.5-11.5,43.3-25.5
		c2.9-4.1,4-9.1,5.4-13.9c6.5-22.5,18.7-44.2,17.4-67.5c-6.2,1.3-12.3,2.8-18.5,4.5C423.6,660.9,427.4,668.7,425.1,676.3z"/>
</g>
<path class="st6" d="M304.7,752.3c3.4-4.4,9.1-6.2,13.6-9.6c5.5-4.2,8.9-10.5,13.4-15.8c4.4-5.3,11-9.9,17.8-8.6
	c0.7,0.1,1.5,0.4,2,0.9c1,1.1,0.5,2.8,0.6,4.4c0,1.9,1,3.7,1.1,5.7c0.3,4.2-3.3,7.5-5.3,11.1c-2.4,4.4-2.6,9.8-5.2,14.2
	c-2.8,4.7-8.1,7.4-13.3,9.2c-4.3,1.5-8.9,2.5-13.1,4.4c-2.9,1.4-8,6.5-11.3,5.6C297.8,771.7,301.7,756.1,304.7,752.3z"/>
<path class="st6" d="M383,695.5c6.3-4.5,13.9-8.4,21.6-7.1c0.2,2.9,0.4,5.9,0.6,8.8c0.1,0.9,0.1,2-0.4,2.8c-0.3,0.5-0.8,0.8-1.2,1.1
	c-2.9,1.8-6.5,2-9.9,2.9c-4.9,1.4-9.3,4.2-14.1,6c-3.4,1.2-14.1,3.1-12-3.5C368.5,703.6,380.3,697.4,383,695.5z"/>
<path class="st6" d="M385.4,679.7c-3.1-0.2-6.2,2.3-6.8,5.4c3.4,2,8,1.4,10.8-1.2c-0.3-2-2.1-3.6-4.1-3.8"/>
<path class="st6" d="M372.6,693c1.3,3.3-1.9,7.5-5.5,7c-1.1-0.2-2.3-0.9-2.5-2c-0.2-1.2,0.9-2.3,2-2.9c1.8-1.1,4-1.6,6.1-1.5"/>
<path class="st6" d="M289.8,750c1-0.7,2.1-1.1,3.2-1.5c4.2-1.5,8.4-2.9,12-5.5s6.5-6.6,6.4-11c-4.5-1.9-9.5,1.1-13.5,3.9
	c-2.8,2-5.6,4-8.5,6c-4.3,3-9,6.7-9.7,11.9c-0.4,3,1.6,7.4,5.2,5.8C287.4,758.4,287.2,751.9,289.8,750z"/>
<path class="st6" d="M445.4,700.2c-1,2.1-1.8,4.4-2.8,6.5c-2.9,6.7-6.8,12.9-11.2,18.8c-1.1,1.5-2.3,3.2-1.8,5
	c0.7,2.3,3.8,3.1,4.6,5.4c3.7,2.4,9.2,0.2,10.9-3.8c1.6-3.7,0.6-8.1,2.2-11.9c3.2-7.7,14.7-7.9,19.7-14.6c3.6-4.9,5-20.8-3.1-22.5
	C456.9,681.5,447.9,694.9,445.4,700.2z"/>
<path class="st6" d="M436.1,759.3c-2.5-3.2-6.8-4.3-10.8-5.3c-4.5-1-9.4-2-13.5,0c-2.5,1.2-4.6,3.6-7.4,4.1
	c-1.5,0.3-3.1,0.1-4.7,0.2c-5.2,0.4-9.5,5.7-8.8,10.9c11.6,0.2,23.2,0.3,34.9,0.5C434.4,769.8,445.2,770.9,436.1,759.3z"/>
<g class="st7">
	<path class="st8" d="M541.6,626.5c-7.9,1.9-15.8,3.9-23.6,6s-15.6,4.3-23.4,6.5c-15.5,4.5-30.9,9.4-46.1,14.6
		c-15.2,5.3-30.2,11-44.9,17.3c-14.7,6.3-29.1,13.2-43,20.9c-6.9,3.8-13.7,7.9-20.3,12.2c-6.6,4.3-13.1,8.8-19.2,13.6
		c-6.2,4.8-12.2,9.8-17.8,15.2l-4.2,4.1c-1.4,1.4-2.7,2.8-4,4.2c-1.4,1.4-2.6,2.9-3.9,4.3c-0.6,0.7-1.3,1.4-1.9,2.2l-1.8,2.3
		l-1.8,2.3c-0.6,0.7-1.2,1.5-1.7,2.3l-1.7,2.3l-0.9,1.2l-0.8,1.2c-1.1,1.6-2.2,3.2-3.2,4.8l-3,4.9c-3.9,6.7-7.2,13.7-9.9,21
		c-2.6,7.3-4.8,14.9-6.1,22.8c-1.3,7.8-2.1,15.9-2.4,24l-1,0.1c-1.8-8-2.9-16.3-3-24.6l0.1-6.3c0.1-2.1,0.3-4.2,0.5-6.3
		c0.1-1.1,0.2-2.1,0.4-3.1l0.5-3.1c0.3-2.1,0.7-4.2,1.2-6.2c1.8-8.3,4.5-16.4,8-24.2l2.8-5.8c1-1.9,2.1-3.7,3.1-5.6l0.8-1.4l0.8-1.4
		l1.7-2.7c1.1-1.8,2.3-3.6,3.6-5.3l1.8-2.6c0.6-0.9,1.3-1.7,1.9-2.5c1.3-1.7,2.6-3.4,4-5s2.8-3.2,4.2-4.8l4.3-4.7
		c5.9-6.1,12.2-11.7,18.8-17c6.6-5.2,13.4-10.1,20.5-14.6l2.6-1.7l2.7-1.6c1.8-1.1,3.6-2.2,5.4-3.2l5.4-3.1l5.5-3
		c7.4-3.9,14.8-7.6,22.4-10.9c7.6-3.3,15.2-6.5,22.9-9.4c7.7-2.9,15.5-5.6,23.4-8.1c2-0.6,3.9-1.2,5.9-1.8s3.9-1.2,5.9-1.8
		c3.9-1.1,7.9-2.2,11.9-3.3c15.9-4.2,31.9-7.7,48.1-10.4c8.1-1.4,16.2-2.5,24.3-3.5c8.1-1,16.3-1.7,24.4-2.1L541.6,626.5z"/>
</g>
</svg>
