<?xml version="1.0" encoding="utf-8"?>
<!-- Generator: Adobe Illustrator 21.0.1, SVG Export Plug-In . SVG Version: 6.00 Build 0)  -->
<svg version="1.1" id="Layer_1" xmlns="http://www.w3.org/2000/svg" xmlns:xlink="http://www.w3.org/1999/xlink" x="0px" y="0px"
	 viewBox="0 0 50 50" style="enable-background:new 0 0 50 50;" xml:space="preserve">
<style type="text/css">
	.st0{fill:#FCFCFC;}
</style>
<g>
	<path class="st0" d="M41.6,18H8.4c-1,0-1.9-1.1-1.9-2.5v-0.9c0-1.3,0.8-2.5,1.9-2.5h33.3c1,0,1.9,1.1,1.9,2.5v0.9
		C43.5,16.8,42.6,18,41.6,18z"/>
	<path class="st0" d="M42.2,27.7H18.6c-0.7,0-1.3-1.1-1.3-2.5v-0.9c0-1.3,0.6-2.5,1.3-2.5h23.7c0.7,0,1.3,1.1,1.3,2.5v0.9
		C43.5,26.5,42.9,27.7,42.2,27.7z"/>
	<path class="st0" d="M41.6,37.4H8.4c-1,0-1.9-1.1-1.9-2.5V34c0-1.3,0.8-2.5,1.9-2.5h33.3c1,0,1.9,1.1,1.9,2.5v0.9
		C43.5,36.2,42.6,37.4,41.6,37.4z"/>
</g>
</svg>
