<?xml version="1.0" encoding="utf-8"?>
<!-- Generator: Adobe Illustrator 21.0.1, SVG Export Plug-In . SVG Version: 6.00 Build 0)  -->
<svg version="1.1" id="Layer_1" xmlns="http://www.w3.org/2000/svg" xmlns:xlink="http://www.w3.org/1999/xlink" x="0px" y="0px"
	 viewBox="0 0 100 100" style="enable-background:new 0 0 100 100;" xml:space="preserve">
<style type="text/css">
	.st0{fill:none;stroke:#2D4559;stroke-width:16;stroke-miterlimit:10;}
	.st1{fill:#2D4559;}
</style>
<circle class="st0" cx="150.1" cy="132" r="24.3"/>
<g>
	<path class="st1" d="M64.8,52.3L89.3,73c-3.1,4.4-6.6,8.5-10.6,12.2c-4,3.7-8.5,6.6-13.6,8.7l-14.8-23l-7.9,24.7
		c-5.4-1.4-10.5-3.5-15.1-6.5c-4.6-3-8.6-6.8-12-11.6l19.4-22.5l-27.6,1c-0.2-1.4-0.3-2.8-0.4-4.2c-0.1-1.4-0.1-2.8-0.1-4.2
		c0-8,1.7-15.8,5.1-23.5L39,35.7L29.3,7.1C36,5.3,42.5,4.3,49,4.3c2.6,0,5.1,0.2,7.7,0.5c2.6,0.3,5.1,0.8,7.7,1.3l-5.6,29.6
		l23.7-16.3c6.5,8.7,10.1,18.4,11,29.1L64.8,52.3z"/>
</g>
</svg>
