<?xml version="1.0" encoding="utf-8"?>
<!-- Generator: Adobe Illustrator 21.0.1, SVG Export Plug-In . SVG Version: 6.00 Build 0)  -->
<svg version="1.1" id="Layer_1" xmlns="http://www.w3.org/2000/svg" xmlns:xlink="http://www.w3.org/1999/xlink" x="0px" y="0px"
	 viewBox="0 0 1349 400" style="enable-background:new 0 0 1349 400;" xml:space="preserve">
<style type="text/css">
	.st0{fill:url(#SVGID_1_);}
	.st1{opacity:0.32;}
	.st2{fill:none;}
	.st3{fill-rule:evenodd;clip-rule:evenodd;fill:#BABABA;}
	.st4{display:none;}
	.st5{display:inline;opacity:0.26;}
	.st6{display:inline;}
	.st7{fill:url(#SVGID_2_);}
	.st8{fill:url(#SVGID_3_);}
	.st9{fill:url(#SVGID_4_);}
	.st10{fill:url(#SVGID_5_);}
	.st11{opacity:0.41;fill:#00ADDC;enable-background:new    ;}
	.st12{opacity:0.18;}
	.st13{fill:url(#SVGID_6_);}
	.st14{opacity:0.15;fill:url(#SVGID_7_);enable-background:new    ;}
	.st15{opacity:0.47;fill:none;stroke:#00ADDC;stroke-miterlimit:10;enable-background:new    ;}
	.st16{fill:url(#SVGID_8_);}
	.st17{fill:url(#SVGID_9_);}
	.st18{fill:url(#SVGID_10_);}
	.st19{fill:url(#SVGID_11_);}
</style>
<linearGradient id="SVGID_1_" gradientUnits="userSpaceOnUse" x1="1" y1="590.05" x2="1351" y2="590.05" gradientTransform="matrix(1 0 0 1 0 -390)">
	<stop  offset="4.039570e-02" style="stop-color:#78358F"/>
	<stop  offset="0.1241" style="stop-color:#5E2C83"/>
	<stop  offset="0.2251" style="stop-color:#472479"/>
	<stop  offset="0.333" style="stop-color:#361E71"/>
	<stop  offset="0.4514" style="stop-color:#2C1A6C"/>
	<stop  offset="0.6006" style="stop-color:#29196B"/>
</linearGradient>
<rect x="1" y="-7" class="st0" width="1350" height="414.1"/>
<g id="Layer_2_5_" class="st1">
	<g>
		<g>
			<g>
				<rect x="187.4" y="180.6" class="st2" width="3.3" height="3.3"/>
				<circle class="st3" cx="189" cy="182.3" r="1.6"/>
			</g>
		</g>
	</g>
	<g>
		<g>
			<g>
				<rect x="1036.8" y="229.7" class="st2" width="3.6" height="3.6"/>
				<circle class="st3" cx="1038.6" cy="231.5" r="1.8"/>
			</g>
		</g>
	</g>
	<g>
		<g>
			<g>
				<rect x="947.4" y="55.9" class="st2" width="3.3" height="3.3"/>
				<circle class="st3" cx="949" cy="57.5" r="1.6"/>
			</g>
		</g>
	</g>
	<g>
		<g>
			<g>
				<rect x="1245" y="315.9" class="st2" width="12.1" height="12.1"/>
				<circle class="st3" cx="1251" cy="322" r="6"/>
			</g>
		</g>
	</g>
	<g>
		<g>
			<g>
				<rect x="1122.7" y="123.8" class="st2" width="12.5" height="12.5"/>
				<circle class="st3" cx="1129" cy="130.1" r="6.3"/>
			</g>
		</g>
	</g>
	<g>
		<g>
			<g>
				<rect x="701.1" y="97.4" class="st2" width="7.8" height="7.8"/>
				<circle class="st3" cx="705" cy="101.3" r="3.9"/>
			</g>
		</g>
	</g>
	<g>
		<g>
			<g>
				<rect x="999.1" y="158.8" class="st2" width="15.8" height="15.8"/>
				<circle class="st3" cx="1007" cy="166.7" r="7.9"/>
			</g>
		</g>
	</g>
	<g>
		<g>
			<g>
				<rect x="737.5" y="213.1" class="st2" width="11" height="11"/>
				<circle class="st3" cx="743" cy="218.6" r="5.5"/>
			</g>
		</g>
	</g>
	<g>
		<g>
			<g>
				<rect x="529.5" y="178.9" class="st2" width="7.1" height="7.1"/>
				<circle class="st3" cx="533" cy="182.4" r="3.5"/>
			</g>
		</g>
	</g>
	<g>
		<g>
			<g>
				<rect x="392.2" y="190" class="st2" width="13.6" height="13.6"/>
				<circle class="st3" cx="399" cy="196.8" r="6.8"/>
			</g>
		</g>
	</g>
	<g>
		<g>
			<g>
				<rect x="249" y="308.3" class="st2" width="4.1" height="4.1"/>
				<circle class="st3" cx="251" cy="310.3" r="2"/>
			</g>
		</g>
	</g>
	<g>
		<g>
			<g>
				<rect x="127.8" y="333.8" class="st2" width="6.5" height="6.5"/>
				<circle class="st3" cx="131" cy="337.1" r="3.2"/>
			</g>
		</g>
	</g>
	<g>
		<g>
			<g>
				<rect x="70.3" y="224" class="st2" width="13.5" height="13.5"/>
				<circle class="st3" cx="77" cy="230.8" r="6.7"/>
			</g>
		</g>
	</g>
	<g>
		<g>
			<g>
				<rect x="157" y="278.6" class="st2" width="4" height="4"/>
				<circle class="st3" cx="159" cy="280.6" r="2"/>
			</g>
		</g>
	</g>
	<g>
		<g>
			<g>
				<rect x="208.7" y="197.3" class="st2" width="12.6" height="12.6"/>
				<circle class="st3" cx="215" cy="203.7" r="6.3"/>
			</g>
		</g>
	</g>
	<g>
		<g>
			<g>
				<rect x="283.1" y="140.6" class="st2" width="15.7" height="15.7"/>
				<circle class="st3" cx="291" cy="148.4" r="7.9"/>
			</g>
		</g>
	</g>
	<g>
		<g>
			<g>
				<rect x="886.6" y="150" class="st2" width="8.8" height="8.8"/>
				<circle class="st3" cx="891" cy="154.5" r="4.4"/>
			</g>
		</g>
	</g>
	<g>
		<g>
			<g>
				<rect x="1237.5" y="99.5" class="st2" width="11.1" height="11.1"/>
				<circle class="st3" cx="1243" cy="105" r="5.5"/>
			</g>
		</g>
	</g>
	<g>
		<g>
			<g>
				<rect x="1057.2" y="-21.1" class="st2" width="11.6" height="11.6"/>
				<circle class="st3" cx="1063" cy="-15.3" r="5.8"/>
			</g>
		</g>
	</g>
	<g>
		<g>
			<g>
				<rect x="858.9" y="254.7" class="st2" width="16.3" height="16.3"/>
				<circle class="st3" cx="867" cy="262.9" r="8.1"/>
			</g>
		</g>
	</g>
	<g>
		<g>
			<g>
				<rect x="538.9" y="306.8" class="st2" width="8.2" height="8.2"/>
				<circle class="st3" cx="543" cy="310.9" r="4.1"/>
			</g>
		</g>
	</g>
	<g>
		<g>
			<g>
				<rect x="1132.1" y="276.6" class="st2" width="5.8" height="5.8"/>
				<circle class="st3" cx="1135" cy="279.5" r="2.9"/>
			</g>
		</g>
	</g>
	<g>
		<g>
			<g>
				<rect x="730.4" y="13.7" class="st2" width="13.2" height="13.2"/>
				<circle class="st3" cx="737" cy="20.3" r="6.6"/>
			</g>
		</g>
	</g>
	<g>
		<g>
			<g>
				<rect x="38.4" y="314.9" class="st2" width="5.2" height="5.2"/>
				<circle class="st3" cx="41" cy="317.5" r="2.6"/>
			</g>
		</g>
	</g>
	<g>
		<g>
			<g>
				<rect x="43.6" y="343.1" class="st2" width="6.7" height="6.7"/>
				<circle class="st3" cx="47" cy="346.5" r="3.4"/>
			</g>
		</g>
	</g>
	<g>
		<g>
			<g>
				<rect x="796.9" y="43.3" class="st2" width="8.1" height="8.1"/>
				<circle class="st3" cx="801" cy="47.3" r="4.1"/>
			</g>
		</g>
	</g>
	<g>
		<g>
			<g>
				<rect x="1277.9" y="410.7" class="st2" width="10.3" height="10.3"/>
				<circle class="st3" cx="1283" cy="415.8" r="5.1"/>
			</g>
		</g>
	</g>
	<g>
		<g>
			<g>
				<rect x="1286.5" y="169" class="st2" width="13" height="13"/>
				<circle class="st3" cx="1293" cy="175.5" r="6.5"/>
			</g>
		</g>
	</g>
</g>
<g id="Layer_1_2_">
	<g id="Layer_1_1_" class="st4">
		<g id="Layer_2" class="st5">
		</g>
		<g id="Layer_3" class="st6">
		</g>
		<g class="st6">
			
				<linearGradient id="SVGID_2_" gradientUnits="userSpaceOnUse" x1="1827.0052" y1="-977.71" x2="1827.0052" y2="-2079.2239" gradientTransform="matrix(0 -1 1 0 2224.5947 2025.4053)">
				<stop  offset="0" style="stop-color:#1D0E3D"/>
				<stop  offset="1" style="stop-color:#0F051D"/>
			</linearGradient>
			<rect y="-2.6" class="st7" width="1349" height="402"/>
		</g>
	</g>
	<g id="Layer_2_1_">
		
			<radialGradient id="SVGID_3_" cx="3649.4568" cy="1220.7727" r="368.9021" gradientTransform="matrix(8.079897e-02 1.0699 -1.5876 0.1635 2516.8796 -3760.5557)" gradientUnits="userSpaceOnUse">
			<stop  offset="0" style="stop-color:#2C6AFF"/>
			<stop  offset="9.057247e-02" style="stop-color:#2559D6;stop-opacity:0.9094"/>
			<stop  offset="0.2273" style="stop-color:#1B429E;stop-opacity:0.7727"/>
			<stop  offset="0.3649" style="stop-color:#132E6E;stop-opacity:0.6351"/>
			<stop  offset="0.5002" style="stop-color:#0C1D46;stop-opacity:0.4998"/>
			<stop  offset="0.6329" style="stop-color:#071027;stop-opacity:0.3671"/>
			<stop  offset="0.7621" style="stop-color:#030712;stop-opacity:0.2379"/>
			<stop  offset="0.8863" style="stop-color:#010204;stop-opacity:0.1137"/>
			<stop  offset="1" style="stop-color:#000000;stop-opacity:0"/>
		</radialGradient>
		<path class="st8" d="M903.4,738.3C580,771.6,304.4,621.9,288,403.9c-16.5-218,232.4-421.7,555.8-455s599,116.4,615.5,334.3
			C1475.7,501.2,1226.8,704.9,903.4,738.3z"/>
		
			<radialGradient id="SVGID_4_" cx="3626.8286" cy="1506.1566" r="368.8788" gradientTransform="matrix(8.079897e-02 1.0699 -1.5876 0.1635 2516.8796 -3760.5557)" gradientUnits="userSpaceOnUse">
			<stop  offset="0" style="stop-color:#2C6AFF"/>
			<stop  offset="9.057247e-02" style="stop-color:#2559D6;stop-opacity:0.9094"/>
			<stop  offset="0.2273" style="stop-color:#1B429E;stop-opacity:0.7727"/>
			<stop  offset="0.3649" style="stop-color:#132E6E;stop-opacity:0.6351"/>
			<stop  offset="0.5002" style="stop-color:#0C1D46;stop-opacity:0.4998"/>
			<stop  offset="0.6329" style="stop-color:#071027;stop-opacity:0.3671"/>
			<stop  offset="0.7621" style="stop-color:#030712;stop-opacity:0.2379"/>
			<stop  offset="0.8863" style="stop-color:#010204;stop-opacity:0.1137"/>
			<stop  offset="1" style="stop-color:#000000;stop-opacity:0"/>
		</radialGradient>
		<path class="st9" d="M448.5,760.7c-323.4,33.3-599-116.4-615.4-334.3c-16.5-218,232.4-421.7,555.8-455s599,116.4,615.5,334.3
			C1020.8,523.6,772,727.3,448.5,760.7z"/>
		
			<linearGradient id="SVGID_5_" gradientUnits="userSpaceOnUse" x1="124.4" y1="-406.45" x2="1236.6" y2="-406.45" gradientTransform="matrix(1 0 0 -1 0 104)">
			<stop  offset="0" style="stop-color:#00FFEE"/>
			<stop  offset="1" style="stop-color:#D585FF"/>
		</linearGradient>
		<path class="st10" d="M1236.6,512.9c0,146.6-249,265.5-556.1,265.5S124.4,659.5,124.4,512.9c0-78.2,68-155.3,180.6-203.9
			c35-15.1,80.4-21.3,123.1-30.6c77.5-17,159.9-35.9,252.4-35.9c71.2,0,139.3,17.7,201.9,29.7
			C1089.7,312.1,1236.6,400.3,1236.6,512.9z"/>
		<path class="st11" d="M1251.1,512.9c-0.2,7.7-0.9,15.4-2.2,23c-1.4,7.6-3.3,15-5.7,22.2c-2.5,7.2-5.5,14.2-8.8,20.9
			c-3.4,6.7-7.2,13.2-11.4,19.3c-1,1.6-2.1,3-3.2,4.6c-1.1,1.5-2.1,3-3.3,4.5l-3.4,4.4l-3.5,4.3l-1.8,2.1l-1.8,2.1l-3.7,4.1l-3.8,4
			c-1.3,1.3-2.5,2.6-3.8,3.9c-10.3,10.3-21.3,19.7-32.8,28.2c-11.5,8.6-23.5,16.4-35.7,23.6c-12.2,7.2-24.8,13.9-37.5,20
			c-25.4,12.3-51.7,22.6-78.4,31.4c-13.3,4.4-26.8,8.4-40.3,12s-27.1,6.9-40.8,9.8c-27.3,6-54.9,10.5-82.6,14.1
			c-13.8,1.7-27.7,3.2-41.6,4.5c-13.9,1.2-27.8,2.1-41.7,2.9c-13.9,0.8-27.8,1.2-41.7,1.5c-7,0.1-13.9,0.2-20.9,0.2
			c-7,0.1-13.9,0-20.9-0.1c-55.6-0.8-111.1-5-166.1-13.1c-13.7-2-27.4-4.3-41.1-6.9c-13.7-2.5-27.3-5.4-40.8-8.5
			c-13.5-3.2-27-6.5-40.4-10.2l-10-2.9c-3.3-1-6.7-2-10-3c-6.7-2-13.3-4.1-19.9-6.3c-26.4-8.8-52.4-19-77.6-31.1
			c-12.6-6-25-12.6-37.1-19.7c-12.1-7.1-23.9-14.8-35.2-23.2c-11.4-8.4-22.2-17.5-32.4-27.5c-1.3-1.2-2.5-2.5-3.8-3.8
			c-1.2-1.3-2.5-2.5-3.7-3.9c-2.4-2.7-4.8-5.3-7.1-8.1c-4.7-5.5-9-11.2-13.1-17.2l-3-4.5c-1-1.5-1.9-3.1-2.8-4.7l-1.4-2.3l-1.3-2.4
			c-0.9-1.6-1.8-3.2-2.6-4.8c-3.3-6.5-6.2-13.3-8.7-20.3c-2.4-7-4.3-14.2-5.7-21.5c-1.3-7.3-2.1-14.8-2.3-22.3v-5.6v-1.4l0.1-1.4
			l0.2-2.8c0.1-3.8,0.6-7.5,1-11.2c0.3-1.9,0.6-3.7,0.9-5.5l0.5-2.8l0.6-2.7c0.4-1.8,0.8-3.7,1.2-5.5l1.4-5.4c0.4-1.8,1-3.6,1.6-5.4
			s1.1-3.6,1.7-5.3c1.3-3.5,2.5-7,4-10.4c2.8-6.9,6.2-13.5,9.8-20c7.3-12.9,15.9-24.9,25.3-36.1c9.5-11.2,19.8-21.5,30.7-31.1
			s22.4-18.4,34.3-26.6c11.9-8.2,24.2-15.7,36.9-22.5c3.1-1.8,6.3-3.4,9.5-5c3.2-1.7,6.4-3.2,9.6-4.8l4.8-2.4l4.9-2.3l4.9-2.3
			c1.7-0.7,3.5-1.5,5.2-2.2l2.6-1.1l2.6-1c1.7-0.7,3.5-1.4,5.2-2c3.5-1.2,7-2.5,10.5-3.5c7-2.3,14-4.1,21-6
			c27.9-7.1,55.2-11.9,81.7-18c27-6.3,54.2-12.4,81.8-17.9c6.9-1.4,13.8-2.7,20.7-4l10.4-1.8c3.5-0.6,6.9-1.2,10.4-1.8l10.5-1.7
			l10.5-1.5c7-1.1,14-1.9,21.1-2.8c3.5-0.5,7.1-0.8,10.6-1.1s7.1-0.8,10.6-1.1c7.1-0.6,14.2-1.3,21.3-1.6l10.7-0.7l10.7-0.4
			c7.1-0.3,14.3-0.3,21.4-0.4c14.4,0,28.9,0.5,43.2,1.7s28.5,2.9,42.6,5c28.1,4.2,55.7,9.9,82.9,15.6c13.6,2.8,27.1,5.7,40.5,8.3
			c13.8,2.7,27.6,5.7,41.4,9c27.5,6.5,54.8,14.2,81.7,23.3c26.9,9.2,53.4,19.7,79.1,32.3c6.4,3.1,12.8,6.4,19.2,9.8
			c6.3,3.4,12.6,7,18.8,10.7c12.4,7.4,24.5,15.4,36.1,24.2c5.8,4.4,11.5,9,17.1,13.7c5.5,4.8,10.9,9.8,16.2,15.1
			c10.4,10.5,20,22,28.3,34.7c8.3,12.6,15.2,26.4,19.9,41.1C1248.9,481.9,1251.3,497.5,1251.1,512.9z M1222,512.9
			c-0.2-12.3-2.4-24.5-6.5-36.1c-4.1-11.7-10-22.8-17.2-33.1c-7.2-10.4-15.7-20.1-25.1-29c-4.7-4.5-9.6-8.8-14.6-12.9
			c-5.1-4.1-10.3-8.1-15.7-12c-21.5-15.3-45-28.2-69.4-39.5c-24.4-11.2-49.7-20.9-75.5-29.2c-25.8-8.4-52.1-15.4-78.6-21.5
			c-13.3-3.1-26.6-5.8-40-8.4c-13.8-2.6-27.5-5.4-41.1-8.2c-27.2-5.6-54-10.9-80.8-14.8c-13.4-1.9-26.8-3.4-40.1-4.5
			c-13.4-1.1-26.6-1.5-39.9-1.5c-27,0.2-54,1.9-80.9,5c-27,3.1-53.9,7.4-80.8,12.4c-27,5-53.9,10.8-81.1,16.5l-10.4,2.1l-10.4,2
			l-20.5,3.9c-13.6,2.5-27,5.1-40,8.1c-6.5,1.5-13,3.1-19.2,5c-3.2,0.9-6.2,1.9-9.3,2.9c-1.5,0.5-3,1.1-4.5,1.6l-2.3,0.8l-2.2,0.9
			l-4.4,1.7l-4.6,2l-4.6,2l-4.6,2.1c-3,1.4-6.1,2.7-9.1,4.2s-6.1,2.9-9,4.4c-11.9,6-23.6,12.6-34.9,19.6
			c-11.3,7.1-22.1,14.8-32.4,23.1c-10.3,8.3-20,17.2-29,26.8c-8.9,9.6-17,19.9-24,30.8c-3.4,5.5-6.7,11.1-9.5,16.9
			c-1.5,2.9-2.7,5.8-4,8.8c-0.6,1.5-1.2,3-1.8,4.5s-1.2,3-1.6,4.5l-1.5,4.6c-0.5,1.5-0.9,3.1-1.3,4.6l-0.6,2.3l-0.5,2.3
			c-0.3,1.6-0.7,3.1-1,4.7c-0.5,3.2-1.1,6.3-1.4,9.5l-0.3,2.4l-0.1,1.2l-0.1,1.2l-0.3,4.8c-0.2,6.4,0,12.8,0.8,19.1
			c0.8,6.4,2.1,12.7,3.8,18.9c1.8,6.2,4,12.4,6.6,18.4c0.7,1.5,1.4,3,2.1,4.5l1.1,2.2l1.2,2.2c0.8,1.5,1.5,2.9,2.3,4.4l2.5,4.3
			c3.4,5.7,7.1,11.3,11.2,16.6c2,2.7,4.1,5.3,6.2,7.9c1,1.3,2.2,2.6,3.3,3.8c1.1,1.3,2.2,2.6,3.3,3.8c9.1,10,19,19.4,29.4,28.1
			c21.1,17.4,44.3,32.3,68.6,45.3s49.7,24,75.7,33.5c26,9.6,52.6,17.5,79.5,24.1c13.5,3.3,27,6.3,40.6,9c13.6,2.6,27.3,5,41,7.1
			c54.8,8.3,110.4,11.8,165.8,11.1c13.9-0.2,27.7-0.6,41.5-1.3s27.6-1.7,41.4-2.9c13.8-1.3,27.5-2.8,41.2-4.6s27.4-3.8,41-6.1
			c54.4-9.4,108.1-22.9,159.7-41.8c25.7-9.5,50.9-20.4,75.1-33c12.1-6.4,23.8-13.2,35.2-20.5c11.4-7.4,22.3-15.3,32.7-23.7
			c10.4-8.4,20.2-17.6,29.2-27.3c1.1-1.2,2.2-2.4,3.3-3.7l3.2-3.7l3.1-3.8l1.6-1.9l1.5-2l3-3.9l2.8-4c1-1.3,1.8-2.7,2.7-4
			c0.9-1.4,1.8-2.7,2.6-4.1C1214.5,562.2,1222.5,537.6,1222,512.9z"/>
	</g>
	<g id="Layer_3_1_" class="st12">
		<path d="M445.6,301c13.5-6.5,27.5-11.9,41.9-16.1c11.6-3.4,24.9-5.7,35,0.8c9.8,6.3,13.5,19.7,10.3,30.9
			c-3.2,11.2-12.1,20.1-22.3,25.6c-10.3,5.5-21.9,7.9-33.4,9.7c-9.6,1.5-20.1,2.5-28.5-2.4c-4.4-2.5-7.8-6.5-11.1-10.3
			c-6.1-7-15.6-13.3-12.1-22.8C428,309.2,439.4,304,445.6,301z"/>
		<path d="M545.1,287.1c10.1-8.3,23.8-11.9,36.7-9.7c1.3,2.8,0.2,6.2-1.9,8.5c-2.1,2.3-4.9,3.6-7.7,4.9c-5.2,2.4-10.8,4.9-16.5,4.3
			s-11.5-5.5-10.7-11.2"/>
		<path d="M933.8,301.9c12.4,4.5,24.9,9.2,37.3,13.9c2,0.7,4,1.5,5.6,2.9c3.4,3.1,3.5,8.6,1.3,12.6s-6.3,6.6-10.5,8.3
			c-8.7,3.5-18.3,3.7-27.6,3.9c-12.1,0.2-24.6,0.2-35.5-5c-12-5.7-28.3-25.1-19.4-39.2C894.2,284.5,921.7,297.5,933.8,301.9z"/>
		<path d="M971.7,362.4c1.4-0.2,2.9-0.6,3.9-1.5c2.2-2,1.3-5.9-1-7.8s-5.5-2.2-8.5-2.3c-5.5-0.2-27.3-0.9-26.5,6.6
			C940.7,366.7,966.3,363.3,971.7,362.4z"/>
		<path d="M546.2,339.3c3.8,5.5,2.1,13.5-2.2,18.7s-10.6,8.1-16.9,10.7c-3.5,1.5-7.1,2.8-10.7,4.2c-1.5,0.6-3.1,1.1-4.8,1.1
			c-12.4-0.3-5.4-15.8-0.1-20C514.2,351.8,545.9,338.8,546.2,339.3z"/>
		<path d="M487.9,362.7c-2.8,0.5-5.3,2.7-6,5.4c4.9,4.3,13.9,1.6,15.6-4.6c-3.6-2.1-8.2-2.3-12.1-0.7c-0.8,0.3-1.6,0.7-2.4,0.6
			s-1.6-1.1-1.1-1.8"/>
		<path d="M843.2,327.1c4.9,7.2,10.8,15,19.4,16.1c5,0.6,11-2.5,11-7.5c0-3-2.2-5.8-4.8-7.2c-2.7-1.5-5.8-1.9-8.8-2.4
			c-6-0.9-12.2-1.7-17.9,0.2"/>
		<path d="M1094,352.6c-14.2-9.7-32-17.4-48.4-12c-1.2,0.4-2.4,0.9-3.3,1.8c-2.6,2.6-1.2,7.1,1.2,9.9c6.1,7.3,16.4,9.2,25.3,12.6
			c3.1,1.2,6.3,2.8,8.4,5.4c2.3,3,2.9,7.1,4.9,10.3c4.4,7,14.1,8.1,22.4,8.4c9.6,0.4,19.3,0.7,28.6-1.4c17.8-4.1-4.5-11.8-9.6-14.7
			C1113.1,367.1,1103.9,359.3,1094,352.6z"/>
		<path d="M368.4,310.8c0.9-1,2.1-2.2,3.4-1.7c1,0.4,1.4,1.5,1.7,2.6c2.2,7.7,4.3,16.2,0.6,23.3c-3,5.8-9.1,9.1-14.8,12.1
			c-12.6,6.6-25.7,13.4-39.8,14.9c-13.2-16.3-2.3-21.9,11.7-27.5C345,328.9,358.5,322,368.4,310.8z"/>
	</g>
	<g id="Layer_4">
		
			<linearGradient id="SVGID_6_" gradientUnits="userSpaceOnUse" x1="980.9083" y1="1479.783" x2="880.8917" y2="1653.0171" gradientTransform="matrix(1 0 0 1 0 -688)">
			<stop  offset="0" style="stop-color:#00FFEE"/>
			<stop  offset="1" style="stop-color:#D585FF"/>
		</linearGradient>
		<circle class="st13" cx="930.9" cy="878.4" r="100"/>
	</g>
</g>
<g id="Layer_2_2_">
	
		<linearGradient id="SVGID_7_" gradientUnits="userSpaceOnUse" x1="-218.2354" y1="127.2237" x2="1728.2449" y2="127.2237" gradientTransform="matrix(1 0 0 -1 0 104)">
		<stop  offset="0" style="stop-color:#00FFEE"/>
		<stop  offset="1" style="stop-color:#D585FF"/>
	</linearGradient>
	<path class="st14" d="M-208.4-60.8c14.6,35.4,43,63.5,74.3,85.5c89,62.8,201.4,82.2,310.1,87.4c118.7,5.6,238.1-3.8,354.4-28
		c137.5-28.6,270.1-77.5,397.7-136c78.3-35.9,155-75.3,229.7-118.3c-21.8,70.2-12.1,149.5,26.1,212.3
		c64.4,106,192.6,151.3,310.7,189.1c54.9,17.5,109.8,35.1,164.7,52.6c8.4,2.7,17.4,5.3,25.7,2.7c8-2.6,13.7-9.5,18.3-16.6
		c42.5-65.4,23.2-151.8-2.6-225.4c-35.5-101.3-80.5-199.2-134.3-292.1c-11.4-19.7-23.7-39.6-42.1-52.9
		c-21.6-15.6-49.1-20.2-75.6-23.4c-298-36.7-597,34.9-893.9,79.2c-121.8,18.2-244.3,31.8-366.9,43.1C125.8-195.8,63.6-190.7,1.3-186
		c-57.8,4.4-121.5,1.5-178.2,13.4C-226-162.3-224-98.8-208.4-60.8z"/>
</g>
<g id="Layer_3_2_">
	<path class="st15" d="M-279,17c146.3,44.4,388.4,98.2,688,74C701,67.5,938.7-33.4,1057-83c19.4-8.1,35.3-15.1,46.1-19.9
		c19.7,54,59,137.9,138.2,212.6c153.4,144.6,381.6,184.4,403.3,142.9c16.5-31.5-75.4-131.3-477-402"/>
</g>
<g id="Layer_4_1_">
</g>
<g id="Layer_1_3_">
	<g id="Layer_1_4_" class="st4">
		<g id="Layer_2_4_" class="st5">
		</g>
		<g id="Layer_3_4_" class="st6">
		</g>
		<g class="st6">
			
				<linearGradient id="SVGID_8_" gradientUnits="userSpaceOnUse" x1="2065.7678" y1="-372.6516" x2="2065.7678" y2="-1474.1655" gradientTransform="matrix(0.2319 0.9727 -0.9727 0.2319 -918.777 -1651.1671)">
				<stop  offset="0" style="stop-color:#1D0E3D"/>
				<stop  offset="1" style="stop-color:#0F051D"/>
			</linearGradient>
			<polygon class="st16" points="1182.3,178.1 -129.9,491 -223.1,99.9 1089.1,-212.9 			"/>
		</g>
	</g>
	<g id="Layer_2_3_">
		
			<radialGradient id="SVGID_9_" cx="3485.8696" cy="831.2888" r="368.9078" gradientTransform="matrix(-0.3267 -1.022 1.5064 -0.5272 138.8015 4044.7742)" gradientUnits="userSpaceOnUse">
			<stop  offset="0" style="stop-color:#2C6AFF"/>
			<stop  offset="9.057247e-02" style="stop-color:#2559D6;stop-opacity:0.9094"/>
			<stop  offset="0.2273" style="stop-color:#1B429E;stop-opacity:0.7727"/>
			<stop  offset="0.3649" style="stop-color:#132E6E;stop-opacity:0.6351"/>
			<stop  offset="0.5002" style="stop-color:#0C1D46;stop-opacity:0.4998"/>
			<stop  offset="0.6329" style="stop-color:#071027;stop-opacity:0.3671"/>
			<stop  offset="0.7621" style="stop-color:#030712;stop-opacity:0.2379"/>
			<stop  offset="0.8863" style="stop-color:#010204;stop-opacity:0.1137"/>
			<stop  offset="1" style="stop-color:#000000;stop-opacity:0"/>
		</radialGradient>
		<path class="st17" d="M131.7-333.1c306.9-107.4,609.7-25.7,676.2,182.6C874.5,57.7,679.6,313.6,372.8,421s-609.7,25.7-676.2-182.4
			C-370,30.3-175.1-225.6,131.7-333.1z"/>
		
			<radialGradient id="SVGID_10_" cx="3463.259" cy="1116.6893" r="368.8858" gradientTransform="matrix(-0.3267 -1.022 1.5064 -0.5272 138.8015 4044.7742)" gradientUnits="userSpaceOnUse">
			<stop  offset="0" style="stop-color:#2C6AFF"/>
			<stop  offset="9.057247e-02" style="stop-color:#2559D6;stop-opacity:0.9094"/>
			<stop  offset="0.2273" style="stop-color:#1B429E;stop-opacity:0.7727"/>
			<stop  offset="0.3649" style="stop-color:#132E6E;stop-opacity:0.6351"/>
			<stop  offset="0.5002" style="stop-color:#0C1D46;stop-opacity:0.4998"/>
			<stop  offset="0.6329" style="stop-color:#071027;stop-opacity:0.3671"/>
			<stop  offset="0.7621" style="stop-color:#030712;stop-opacity:0.2379"/>
			<stop  offset="0.8863" style="stop-color:#010204;stop-opacity:0.1137"/>
			<stop  offset="1" style="stop-color:#000000;stop-opacity:0"/>
		</radialGradient>
		<path class="st18" d="M569-460.4c306.9-107.4,609.7-25.7,676.2,182.5c66.6,208.2-128.3,464.1-435.1,571.5s-609.7,25.7-676.2-182.4
			C67.3-97,262.1-352.9,569-460.4z"/>
		
			<linearGradient id="SVGID_11_" gradientUnits="userSpaceOnUse" x1="754.9198" y1="-47.1577" x2="1814.4504" y2="-299.7751" gradientTransform="matrix(-0.9727 0.2319 0.2319 0.9727 1690.7933 -298.0828)">
			<stop  offset="0" style="stop-color:#63E2FF"/>
			<stop  offset="1" style="stop-color:#B066FE"/>
		</linearGradient>
		<path class="st19" d="M-140.1-36.6c-34-142.6,180.6-316,479.4-387.2s568.5-13.3,602.5,129.3c18.1,76.1-30.1,166.8-128.4,240.2
			C782.8-31.5,740.1-14.9,700.7,4c-71.4,34.5-147.2,72-237.2,93.5c-69.3,16.5-139.6,15.1-203.3,17.9C49.4,124.7-114,73-140.1-36.6z"
			/>
		<path class="st11" d="M-154.2-33.2c-1.6-7.5-2.7-15.2-3.2-22.9c-0.4-7.7-0.3-15.4,0.4-22.9c0.8-7.6,2.1-15.1,3.7-22.4
			c1.8-7.3,3.9-14.5,6.6-21.4c0.6-1.8,1.3-3.4,2-5.2c0.7-1.7,1.3-3.4,2.2-5.1l2.3-5.1l2.4-5l1.3-2.5l1.3-2.5l2.6-4.8l2.8-4.8
			c1-1.6,1.8-3.1,2.8-4.7c7.6-12.4,16.2-24.1,25.4-35c9.2-11,19.1-21.4,29.3-31.2s20.9-19.3,31.8-28.2c21.9-17.9,45-34,69-48.7
			c11.9-7.4,24.1-14.4,36.4-21s24.8-13,37.4-19c25.2-12.2,51-22.9,77.1-32.9c13-4.9,26.2-9.5,39.4-14c13.2-4.4,26.6-8.5,39.9-12.5
			s26.8-7.6,40.2-11.1c6.8-1.7,13.5-3.4,20.3-5c6.8-1.7,13.5-3.2,20.4-4.7c54.3-12.1,109.2-20.9,164.6-25.8
			c13.8-1.2,27.7-2.2,41.6-2.8c13.9-0.7,27.8-1.1,41.7-1.2c13.9,0,27.8,0.1,41.7,0.6l10.4,0.5c3.4,0.2,7,0.4,10.4,0.6
			c7,0.4,13.9,0.9,20.8,1.5c27.7,2.4,55.4,6.3,82.7,12.3c13.6,2.9,27.2,6.5,40.7,10.6c13.4,4.1,26.7,8.9,39.6,14.4
			c13,5.5,25.7,11.9,37.9,19.2c1.5,0.9,3,1.9,4.6,2.8c1.5,1,3,1.9,4.5,2.9c3,2.1,5.9,4,8.8,6.2c5.8,4.3,11.4,8.8,16.7,13.7l4,3.7
			c1.3,1.2,2.6,2.6,3.8,3.9l1.9,1.9l1.8,2c1.2,1.3,2.5,2.7,3.6,4.1c4.7,5.6,9.1,11.5,13.2,17.7c4,6.3,7.5,12.8,10.5,19.6
			c3,6.8,5.5,13.9,7.4,21.2l1.3,5.4l0.3,1.4l0.2,1.4l0.5,2.8c0.8,3.7,1.2,7.4,1.6,11.1c0.1,1.9,0.3,3.7,0.4,5.6l0.2,2.8v2.8
			c0,1.8,0.1,3.8,0.1,5.6l-0.1,5.6c0,1.8-0.1,3.7-0.3,5.6c-0.2,1.9-0.2,3.8-0.4,5.5c-0.5,3.7-0.8,7.4-1.5,11
			c-1.1,7.4-2.9,14.6-4.9,21.7c-4.1,14.2-9.7,27.9-16.2,41c-6.6,13.1-14.3,25.5-22.7,37.4s-17.5,23.1-27.2,33.8s-20,20.9-30.8,30.4
			c-2.6,2.5-5.3,4.8-8.1,7.1c-2.7,2.4-5.5,4.6-8.2,6.9l-4.1,3.4l-4.2,3.4l-4.2,3.4c-1.5,1.1-3.1,2.3-4.5,3.3l-2.3,1.7l-2.3,1.6
			c-1.5,1.1-3.1,2.2-4.6,3.2c-3.1,2-6.2,4.1-9.4,5.8c-6.3,3.9-12.7,7.2-19,10.7C756.5-1.4,731,9.6,706.7,21.6
			C681.9,34,656.8,46.3,631.3,58c-6.4,3-12.8,5.8-19.2,8.7l-9.7,4.2c-3.3,1.4-6.4,2.8-9.7,4.2l-9.8,4.1L573,83
			c-6.6,2.7-13.2,5.1-19.9,7.6c-3.3,1.3-6.7,2.4-10.1,3.5c-3.3,1.1-6.7,2.4-10.1,3.5c-6.8,2.2-13.5,4.6-20.3,6.5l-10.2,3.2
			l-10.3,2.9c-6.8,1.9-13.8,3.6-20.7,5.4c-14,3.3-28.2,6.2-42.4,8.4c-14.2,2.1-28.4,3.8-42.6,5c-28.3,2.4-56.5,3.3-84.3,4.1
			c-13.9,0.4-27.7,0.7-41.3,1.3c-14,0.6-28.2,0.9-42.4,0.8c-28.3,0.1-56.6-1.1-84.9-3.7c-28.3-2.7-56.5-6.8-84.4-13.1
			c-6.9-1.5-13.9-3.3-20.9-5.1c-6.9-1.8-13.9-3.9-20.8-6C-6.4,102.9-20,98-33.4,92.1c-6.7-2.9-13.3-6.1-19.8-9.4
			c-6.5-3.4-12.9-7-19.3-10.9C-85,64-97,55-108,44.6c-11-10.3-20.9-22.2-28.9-35.4C-144.9-3.5-150.8-18.2-154.2-33.2z M-125.9-39.9
			c3,11.9,8,23.3,14.7,33.6c6.7,10.4,15,19.9,24.4,28.2c9.4,8.4,19.9,15.9,31.1,22.4c5.6,3.3,11.4,6.3,17.2,9.2
			c5.9,2.8,11.9,5.5,18.1,8c24.5,9.9,50.3,17,76.7,22.3c26.3,5.2,53.2,8.8,80.2,10.9c27,2.2,54.3,2.9,81.4,2.7
			c13.7-0.1,27.2-0.5,40.9-1.1c14-0.7,28-1.1,41.9-1.6c27.8-0.9,55.1-1.9,82-4.3c13.5-1.3,26.9-2.9,40.1-4.9
			c13.3-2,26.2-4.7,39.2-7.8c26.2-6.5,52.1-14.4,77.5-23.6c25.5-9.3,50.7-19.7,75.7-30.8c25.1-11.1,49.9-23,75.1-34.9l9.6-4.5
			l9.7-4.4l19-8.5c12.6-5.6,25.1-11.2,37-17.2c6-3,11.9-6,17.5-9.3c2.9-1.6,5.6-3.3,8.4-5c1.3-0.8,2.7-1.8,4-2.6l2.1-1.3l1.9-1.4
			l3.9-2.7l4-3l4-3l4-3.1c2.6-2.1,5.3-4,7.9-6.2s5.3-4.2,7.7-6.4c10.2-8.6,20-17.7,29.4-27.2c9.3-9.5,18.1-19.5,26.2-30
			c8.1-10.5,15.5-21.4,22-32.8c6.4-11.4,11.9-23.3,16.2-35.5c2-6.1,3.9-12.4,5.3-18.6c0.8-3.2,1.3-6.3,1.8-9.5
			c0.2-1.6,0.5-3.2,0.7-4.8s0.5-3.2,0.5-4.7l0.4-4.8c0.1-1.6,0.2-3.2,0.2-4.8l0.1-2.4v-2.4c-0.1-1.6,0-3.2-0.1-4.8
			c-0.3-3.2-0.4-6.4-0.8-9.6l-0.3-2.4l-0.2-1.2l-0.2-1.2l-0.8-4.7c-1.3-6.3-3-12.5-5.2-18.4c-2.3-6-5-11.9-8.1-17.5
			c-3.2-5.6-6.8-11.1-10.7-16.4c-1-1.3-2.1-2.6-3.1-3.9l-1.6-1.9l-1.7-1.9c-1.1-1.3-2.1-2.5-3.3-3.7l-3.4-3.6
			c-4.6-4.8-9.5-9.3-14.7-13.5c-2.6-2.2-5.2-4.2-7.9-6.2c-1.3-1-2.7-2-4.1-2.9c-1.4-1-2.7-2-4.1-2.9c-11.2-7.6-23-14.5-35.1-20.5
			c-24.6-12-50.6-21.1-77.2-28.2c-26.7-7-53.9-11.8-81.4-15c-27.5-3.3-55.2-4.8-82.9-5c-13.9-0.1-27.7,0.1-41.6,0.7
			c-13.8,0.6-27.7,1.5-41.5,2.6c-55.2,4.6-110.1,14.1-163.9,27.7c-13.5,3.4-26.8,7-40.1,10.9s-26.5,8.1-39.6,12.4
			c-13.1,4.5-26.1,9.1-39,14s-25.8,10.1-38.5,15.4C132-347.6,82.9-322,37-291.7C14.2-276.5-7.7-260-28.4-242.2
			c-10.3,9-20.1,18.4-29.5,28.1c-9.4,9.8-18.1,20.1-26.3,30.6c-8.2,10.6-15.6,21.8-22.1,33.3c-0.8,1.4-1.6,2.8-2.4,4.4l-2.3,4.3
			l-2.1,4.4l-1.1,2.2l-1,2.3l-2,4.5l-1.8,4.5c-0.7,1.5-1.1,3-1.7,4.5c-0.6,1.6-1.1,3-1.6,4.6C-130-89.6-132.1-63.9-125.9-39.9z"/>
	</g>
	<g id="Layer_3_3_" class="st12">
		<path d="M678.5-13.9c-11.6,9.5-24,18-37,25.4c-10.5,6-22.9,11.3-34.2,7.3c-11-3.9-17.7-16-17.2-27.7c0.5-11.6,7.1-22.4,15.8-30.1
			s19.5-12.8,30.2-17.2c9-3.7,19-7.1,28.3-4.3c4.9,1.4,9.1,4.5,13.2,7.4c7.6,5.4,18.3,9.3,17.1,19.4
			C693.7-25.9,683.8-18.2,678.5-13.9z"/>
		<path d="M584.9,22.7c-7.9,10.4-20.4,17.1-33.4,17.9c-1.9-2.4-1.6-6-0.1-8.7s3.9-4.6,6.4-6.6c4.5-3.5,9.4-7.3,15.1-8
			c5.7-0.7,12.5,2.7,13,8.4"/>
		<path d="M203.4,98.5c-13.1-1.5-26.4-3.2-39.5-4.9c-2.1-0.2-4.2-0.5-6.1-1.5c-4-2.2-5.4-7.6-4.2-12s4.6-7.9,8.3-10.5
			c7.7-5.4,16.9-7.8,25.9-10.2c11.7-3,23.9-5.9,35.7-3.4c13,2.8,33.3,17.9,28,33.6C245.9,106.2,216.2,99.9,203.4,98.5z"/>
		<path d="M152.5,48.4c-1.3,0.5-2.7,1.3-3.4,2.4c-1.7,2.5,0.1,6,2.8,7.4c2.7,1.3,5.9,0.9,8.8,0.3c5.4-1.1,26.8-5.5,24.2-12.6
			C181.6,37,157.5,46.3,152.5,48.4z"/>
		<path d="M571.7-27.8c-5-4.5-5.2-12.6-2.2-18.7s8.4-10.3,14-14.3c3.1-2.3,6.3-4.4,9.4-6.6c1.3-0.9,2.8-1.8,4.4-2.2
			c12.1-2.6,8.9,14.1,4.7,19.4C600-47.4,572.1-27.4,571.7-27.8z"/>
		<path d="M623-64.1c2.6-1.1,4.5-3.9,4.6-6.6c-5.8-3-13.9,1.7-14.1,8.1c4,1.2,8.5,0.3,11.9-2.1c0.7-0.5,1.4-1.1,2.2-1.1
			c0.8-0.1,1.8,0.7,1.5,1.5"/>
		<path d="M285.7,52.9c-6.4-5.9-14-12.1-22.6-11.2c-5,0.6-10.1,5-9,9.8c0.7,2.9,3.5,5.1,6.3,5.9c3,0.8,6.1,0.5,9.1,0.3
			c6-0.5,12.3-1.2,17.4-4.3"/>
		<path d="M751.3-41.3c-0.6,1.2-1.5,2.6-2.9,2.4c-1.1-0.2-1.7-1.1-2.3-2.1c-3.9-7-7.9-14.8-6-22.5c1.6-6.3,6.7-11,11.6-15.2
			c10.7-9.3,21.9-19,35.3-23.7c16.6,12.8,7.3,20.8-5,29.5C769.9-64.4,758.3-54.5,751.3-41.3z"/>
	</g>
</g>
</svg>
