<?xml version="1.0" encoding="utf-8"?>
<!-- Generator: Adobe Illustrator 21.0.1, SVG Export Plug-In . SVG Version: 6.00 Build 0)  -->
<svg version="1.1" xmlns="http://www.w3.org/2000/svg" xmlns:xlink="http://www.w3.org/1999/xlink" x="0px" y="0px"
	 viewBox="0 0 400 700" style="enable-background:new 0 0 400 700;" xml:space="preserve">
<style type="text/css">
	.st0{fill:url(#SVGID_1_);}
	.st1{opacity:0.46;fill:url(#SVGID_2_);enable-background:new    ;}
	.st2{fill:none;stroke:url(#SVGID_3_);stroke-miterlimit:10;}
	.st3{opacity:0.46;fill:url(#SVGID_4_);enable-background:new    ;}
	.st4{fill:#1F5887;}
	.st5{fill:url(#SVGID_5_);}
	.st6{opacity:0.63;fill:none;stroke:#FFFFFF;stroke-miterlimit:10;enable-background:new    ;}
	.st7{fill:url(#SVGID_6_);}
	.st8{fill:url(#SVGID_7_);}
	.st9{fill:url(#SVGID_8_);}
	.st10{fill:url(#SVGID_9_);}
	.st11{opacity:0.28;fill:#15202B;enable-background:new    ;}
	.st12{opacity:0.22;}
	.st13{fill:#FFFFFF;}
	.st14{opacity:0.15;}
	.st15{fill:none;}
	.st16{fill-rule:evenodd;clip-rule:evenodd;fill:#EBF9FF;}
</style>
<g id="Layer_1">
	<g>
		
			<linearGradient id="SVGID_1_" gradientUnits="userSpaceOnUse" x1="201" y1="55.6835" x2="201" y2="634.7658" gradientTransform="matrix(1 0 0 -1 0 702)">
			<stop  offset="0" style="stop-color:#1D0E3D"/>
			<stop  offset="1" style="stop-color:#0F051D"/>
		</linearGradient>
		<rect y="-9.2" class="st0" width="402" height="709.2"/>
	</g>
	
		<radialGradient id="SVGID_2_" cx="-101.9593" cy="763.0642" r="571.3625" gradientTransform="matrix(1 0 0 -1 0 702)" gradientUnits="userSpaceOnUse">
		<stop  offset="0" style="stop-color:#00FFEE"/>
		<stop  offset="6.675065e-02" style="stop-color:#03E2D8"/>
		<stop  offset="0.2071" style="stop-color:#09AAAE"/>
		<stop  offset="0.3483" style="stop-color:#0F7989"/>
		<stop  offset="0.4871" style="stop-color:#13526C"/>
		<stop  offset="0.6233" style="stop-color:#173355"/>
		<stop  offset="0.7559" style="stop-color:#191E44"/>
		<stop  offset="0.8833" style="stop-color:#1B103A"/>
		<stop  offset="1" style="stop-color:#1B0C37"/>
	</radialGradient>
	<ellipse class="st1" cx="43.6" cy="158.6" rx="409.5" ry="358.5"/>
	
		<linearGradient id="SVGID_3_" gradientUnits="userSpaceOnUse" x1="129.4574" y1="54.4128" x2="126.4248" y2="187.5031" gradientTransform="matrix(1 0 0 1 0 -92)">
		<stop  offset="0" style="stop-color:#00FFEE"/>
		<stop  offset="1" style="stop-color:#D585FF"/>
	</linearGradient>
	<path class="st2" d="M77.5,75c0,0,73.5,50.6,92.5-8.6c16.5-51.4,0-102.9,0-102.9"/>
	
		<radialGradient id="SVGID_4_" cx="595.6421" cy="830.0094" r="571.3625" gradientTransform="matrix(-0.9163 0.4004 0.4004 0.9163 648.7046 -286.2872)" gradientUnits="userSpaceOnUse">
		<stop  offset="0" style="stop-color:#00FFEE"/>
		<stop  offset="6.675065e-02" style="stop-color:#03E2D8;stop-opacity:0.9332"/>
		<stop  offset="0.2071" style="stop-color:#09AAAE;stop-opacity:0.7929"/>
		<stop  offset="0.3483" style="stop-color:#0F7989;stop-opacity:0.6517"/>
		<stop  offset="0.4871" style="stop-color:#13526C;stop-opacity:0.5129"/>
		<stop  offset="0.6233" style="stop-color:#173355;stop-opacity:0.3767"/>
		<stop  offset="0.7559" style="stop-color:#191E44;stop-opacity:0.2441"/>
		<stop  offset="0.8833" style="stop-color:#1B103A;stop-opacity:0.1167"/>
		<stop  offset="1" style="stop-color:#1B0C37;stop-opacity:0"/>
	</radialGradient>
	<path class="st3" d="M-161.3,733.7c-79.3-181.4,24.5-401.9,231.7-492.4s439.5-16.9,518.8,164.5s-24.5,401.9-231.7,492.4
		S-82.1,915.1-161.3,733.7z"/>
	<path class="st4" d="M123,23c0,60.2-48.8,104-109,104S-95,83.2-95,23S-46.2-86,14-86S123-37.2,123,23z"/>
	
		<linearGradient id="SVGID_5_" gradientUnits="userSpaceOnUse" x1="25.7" y1="121.8565" x2="172.0573" y2="121.8565" gradientTransform="matrix(1 0 0 1 0 -92)">
		<stop  offset="0" style="stop-color:#00FFEE"/>
		<stop  offset="1" style="stop-color:#D585FF"/>
	</linearGradient>
	<path class="st5" d="M26.7,25.5c4.3,3.2,8.6,6.3,12.9,9.4l6.5,4.6l6.5,4.5c8.8,5.9,17.7,11.6,26.7,16.7c4.6,2.5,9.1,5,13.8,7.1
		c4.6,2.2,9.3,4.2,14.1,5.8c4.7,1.6,9.5,2.8,14.2,3.5s9.3,0.6,13.4-0.3c4.2-0.9,7.7-2.9,10.8-5.6c3.1-2.8,5.5-6.5,7.5-10.7
		s3.5-8.9,4.6-13.7l0.4-1.8l0.3-1.9c0.2-1.2,0.5-2.5,0.7-3.7c0.3-2.5,0.8-5,1-7.6c1.2-10.2,1.6-20.7,1.7-31.2
		c0.1-10.6-0.2-21.2-0.2-31.9l1.2-0.2c3.1,10.3,5.4,20.8,7,31.5s2.5,21.6,2.2,32.6c0,2.8-0.3,5.5-0.5,8.3c-0.1,1.4-0.3,2.8-0.5,4.2
		l-0.3,2.1l-0.4,2.1c-0.3,1.4-0.5,2.8-0.8,4.2l-1,4.2c-0.4,1.4-0.9,2.8-1.4,4.2c-0.4,1.4-1.1,2.8-1.6,4.2c-1.2,2.8-2.6,5.5-4.4,8.1
		c-0.4,0.7-0.9,1.3-1.4,1.9l-1.5,1.9c-0.5,0.6-1.1,1.2-1.6,1.8c-0.6,0.6-1.1,1.2-1.7,1.7c-4.8,4.4-11,7.6-17.3,8.8
		c-6.3,1.3-12.6,1.1-18.4,0.1s-11.3-2.7-16.6-4.8c-10.5-4.2-20-9.8-29-15.9c-9-6.2-17.4-13-25.4-20.2c-4-3.6-7.9-7.3-11.6-11.2
		c-3.8-3.8-7.4-7.8-10.9-11.9L26.7,25.5z"/>
	<path class="st6" d="M94-31.5c0,0,44,112.5-13,158.5C-2.5,194.5-71.3,73-71.3,73"/>
	
		<linearGradient id="SVGID_6_" gradientUnits="userSpaceOnUse" x1="-75.3033" y1="140.8538" x2="130" y2="140.8538" gradientTransform="matrix(1 0 0 1 0 -92)">
		<stop  offset="0" style="stop-color:#00FFEE"/>
		<stop  offset="1" style="stop-color:#D585FF"/>
	</linearGradient>
	<path class="st7" d="M130,50.7c-0.1,7-0.8,14.1-2.2,21c-1.4,6.9-3.4,13.7-6,20.2c-5.2,13-12.9,25-22.5,35S78.2,145,65.6,150.5
		s-26.2,8.3-39.8,8.1c-6.8,0-13.6-0.8-20.2-2.4c-6.6-1.5-13.1-3.7-19.2-6.6c-12.3-5.7-23.4-14-32.6-24.1s-16.5-21.9-21.4-34.7
		c-2.5-6.4-4.4-13-5.6-19.8c-1.3-6.8-2-13.6-2.1-20.5c-0.1-13.8,2.1-27.6,6.7-40.6C-64-3-57-15.2-47.9-25.8
		c9.1-10.5,20.3-19.4,32.9-25.5s26.7-9.5,40.8-9.6c14.1-0.1,28.3,3,41.2,8.8c12.9,5.9,24.5,14.5,34,25c4.7,5.3,9,11,12.6,17
		c3.6,6.1,6.7,12.5,9.2,19.1c2.4,6.7,4.3,13.5,5.5,20.5C129.5,36.6,130,43.6,130,50.7z M116,50.7c-0.1-6.3-0.6-12.5-1.8-18.6
		c-1.1-6.1-2.7-12.2-4.8-18C105.2,2.3,99-8.7,90.9-18.2c-8-9.5-17.9-17.5-29.1-23c-5.6-2.8-11.4-4.9-17.5-6.4S32-49.8,25.8-49.9
		C13.3-50,0.8-47.3-10.6-42s-21.7,13-30.2,22.5C-49.2-10-55.9,1.1-60.4,13.1s-6.8,24.8-7,37.6c-0.1,12.9,1.9,25.7,6,38
		c4.2,12.2,10.5,23.7,18.9,33.7c4.2,5,8.9,9.5,14,13.5s10.6,7.5,16.5,10.3s12,5,18.4,6.4s12.9,2.1,19.4,2.1c6.5-0.1,13-0.9,19.3-2.5
		s12.4-3.9,18.1-6.8c5.7-2.9,11.1-6.6,16-10.7c4.9-4.1,9.4-8.7,13.4-13.7c7.9-10,13.9-21.4,17.8-33.3c2-6,3.4-12.1,4.3-18.3
		C115.6,63.2,116.1,56.9,116,50.7z"/>
	
		<linearGradient id="SVGID_7_" gradientUnits="userSpaceOnUse" x1="109" y1="103" x2="-109" y2="103" gradientTransform="matrix(1 0 0 1 0 -92)">
		<stop  offset="0" style="stop-color:#00FFEE"/>
		<stop  offset="1" style="stop-color:#D585FF"/>
	</linearGradient>
	<circle class="st8" cx="0" cy="11" r="109"/>
	<g>
		
			<linearGradient id="SVGID_8_" gradientUnits="userSpaceOnUse" x1="533" y1="0.6723" x2="164.9" y2="0.6723" gradientTransform="matrix(1 0 0 -1 0 702)">
			<stop  offset="0" style="stop-color:#00FFEE"/>
			<stop  offset="1" style="stop-color:#D585FF"/>
		</linearGradient>
		<path class="st9" d="M467.8,592.2c-28.2-2.9-57.8-1.5-87.6,4.8c1.3,23.3-10.9,45-17.4,67.5c-1.4,4.8-2.5,9.8-5.4,13.9
			c-9.8,14-33.9,11.2-43.3,25.5c-2.9,4.4-3.9,9.9-6.6,14.5c-9.6,16.1-15-5.4-10.5-14.6c4.7-9.7,16.8-12.5,26.8-16.6
			c15.5-6.3,29.3-19.4,31.4-36c0.5-3.7,0.4-7.6,1.6-11.2c1.8-5.5,6.5-9.7,8.1-15.3c2.3-7.6-1.5-15.4-3.3-23.2
			c-5.7,1.6-11.5,3.4-17.2,5.3c-101.2,34.7-169.6,117.6-179.5,205.1H533L467.8,592.2z"/>
		
			<linearGradient id="SVGID_9_" gradientUnits="userSpaceOnUse" x1="533" y1="41.3951" x2="165.0575" y2="41.3951" gradientTransform="matrix(1 0 0 -1 0 702)">
			<stop  offset="0" style="stop-color:#00FFEE"/>
			<stop  offset="1" style="stop-color:#D585FF"/>
		</linearGradient>
		<path class="st10" d="M365,624.7c-1.7,5.5-6.3,9.8-8.1,15.3c-1.2,3.6-1.1,7.4-1.6,11.2c-2.2,16.6-16,29.7-31.4,36
			c-10,4.1-22.1,6.9-26.8,16.6c-4.5,9.2,0.9,30.7,10.5,14.6c2.7-4.6,3.7-10,6.6-14.5c9.3-14.3,33.5-11.5,43.3-25.5
			c2.9-4.1,4-9.1,5.4-13.9c6.5-22.5,18.7-44.2,17.4-67.5c-6.2,1.3-12.3,2.8-18.5,4.5C363.5,609.3,367.3,617.1,365,624.7z"/>
		<path class="st11" d="M365,624.7c-1.7,5.5-6.3,9.8-8.1,15.3c-1.2,3.6-1.1,7.4-1.6,11.2c-2.2,16.6-16,29.7-31.4,36
			c-10,4.1-22.1,6.9-26.8,16.6c-4.5,9.2,0.9,30.7,10.5,14.6c2.7-4.6,3.7-10,6.6-14.5c9.3-14.3,33.5-11.5,43.3-25.5
			c2.9-4.1,4-9.1,5.4-13.9c6.5-22.5,18.7-44.2,17.4-67.5c-6.2,1.3-12.3,2.8-18.5,4.5C363.5,609.3,367.3,617.1,365,624.7z"/>
	</g>
	<path class="st11" d="M34.4,81.5c5.3,4.6,9.2,8,9.2,13.3c0,6-5,12.3-11.3,13.2c-9.8,1.4-15.4-11.1-15.7-11.9
		c-3.6-8.3-1.9-19.9,3.5-21.9C24.3,72.6,29.6,77.3,34.4,81.5z"/>
	<path class="st11" d="M39,73.5c-1.6-0.1-2.9-2.2-2.5-4c0.4-2.1,3.3-3.4,4.7-2.5c1.2,0.7,1.2,2.9,0.5,4.3
		C41.6,71.4,40.6,73.6,39,73.5z"/>
	<path class="st11" d="M47.6,78c-1.4-3.8-0.3-9.4,3.8-10.9c3.7-1.3,8.1,1.3,9.4,4.7c2,5.1-2.9,11.6-7.3,11.5
		C50.7,83.1,48.4,80.3,47.6,78z"/>
	<path class="st11" d="M80.1,56.1c-1.8,4.9-3.2,8.5-6.8,9.8c-4.1,1.5-9.8-0.3-12.1-4.4c-3.5-6.4,3.7-13.6,4.2-14
		c4.8-4.7,13.3-6.4,16.1-3.2C83.6,46.7,81.8,51.7,80.1,56.1z"/>
	<path class="st11" d="M244.6,700.7c3.4-4.4,9.1-6.2,13.6-9.6c5.5-4.2,8.9-10.5,13.4-15.8c4.4-5.3,11-9.9,17.8-8.6
		c0.7,0.1,1.5,0.4,2,0.9c1,1.1,0.5,2.8,0.6,4.4c0,1.9,1,3.7,1.1,5.7c0.3,4.2-3.3,7.5-5.3,11.1c-2.4,4.4-2.6,9.8-5.2,14.2
		c-2.8,4.7-8.1,7.4-13.3,9.2c-4.3,1.5-8.9,2.5-13.1,4.4c-2.9,1.4-8,6.5-11.3,5.6C237.7,720.1,241.6,704.5,244.6,700.7z"/>
	<path class="st11" d="M322.9,643.9c6.3-4.5,13.9-8.4,21.6-7.1c0.2,2.9,0.4,5.9,0.6,8.8c0.1,0.9,0.1,2-0.4,2.8
		c-0.3,0.5-0.8,0.8-1.2,1.1c-2.9,1.8-6.5,2-9.9,2.9c-4.9,1.4-9.3,4.2-14.1,6c-3.4,1.2-14.1,3.1-12-3.5
		C308.4,652,320.2,645.8,322.9,643.9z"/>
	<path class="st11" d="M325.3,628.1c-3.1-0.2-6.2,2.3-6.8,5.4c3.4,2,8,1.4,10.8-1.2c-0.3-2-2.1-3.6-4.1-3.8"/>
	<path class="st11" d="M312.5,641.4c1.3,3.3-1.9,7.5-5.5,7c-1.1-0.2-2.3-0.9-2.5-2c-0.2-1.2,0.9-2.3,2-2.9c1.8-1.1,4-1.6,6.1-1.5"/>
	<path class="st11" d="M229.7,698.4c1-0.7,2.1-1.1,3.2-1.5c4.2-1.5,8.4-2.9,12-5.5s6.5-6.6,6.4-11c-4.5-1.9-9.5,1.1-13.5,3.9
		c-2.8,2-5.6,4-8.5,6c-4.3,3-9,6.7-9.7,11.9c-0.4,3,1.6,7.4,5.2,5.8C227.3,706.8,227.1,700.3,229.7,698.4z"/>
	<path class="st11" d="M385.3,648.6c-1,2.1-1.8,4.4-2.8,6.5c-2.9,6.7-6.8,12.9-11.2,18.8c-1.1,1.5-2.3,3.2-1.8,5
		c0.7,2.3,3.8,3.1,4.6,5.4c3.7,2.4,9.2,0.2,10.9-3.8c1.6-3.7,0.6-8.1,2.2-11.9c3.2-7.7,14.7-7.9,19.7-14.6c3.6-4.9,5-20.8-3.1-22.5
		C396.8,629.9,387.8,643.3,385.3,648.6z"/>
	<path class="st11" d="M376,707.7c-2.5-3.2-6.8-4.3-10.8-5.3c-4.5-1-9.4-2-13.5,0c-2.5,1.2-4.6,3.6-7.4,4.1
		c-1.5,0.3-3.1,0.1-4.7,0.2c-5.2,0.4-9.5,5.7-8.8,10.9c11.6,0.2,23.2,0.3,34.9,0.5C374.3,718.2,385.1,719.3,376,707.7z"/>
	<g class="st12">
		<path class="st13" d="M481.5,574.9c-7.9,1.9-15.8,3.9-23.6,6c-7.8,2.1-15.6,4.3-23.4,6.5c-15.5,4.5-30.9,9.4-46.1,14.6
			c-15.2,5.3-30.2,11-44.9,17.3c-14.7,6.3-29.1,13.2-43,20.9c-6.9,3.8-13.7,7.9-20.3,12.2c-6.6,4.3-13.1,8.8-19.2,13.6
			c-6.2,4.8-12.2,9.8-17.8,15.2l-4.2,4.1c-1.4,1.4-2.7,2.8-4,4.2c-1.4,1.4-2.6,2.9-3.9,4.3c-0.6,0.7-1.3,1.4-1.9,2.2l-1.8,2.3
			l-1.8,2.3c-0.6,0.7-1.2,1.5-1.7,2.3l-1.7,2.3l-0.9,1.2l-0.8,1.2c-1.1,1.6-2.2,3.2-3.2,4.8l-3,4.9c-3.9,6.7-7.2,13.7-9.9,21
			c-2.6,7.3-4.8,14.9-6.1,22.8c-1.3,7.8-2.1,15.9-2.4,24l-1,0.1c-1.8-8-2.9-16.3-3-24.6l0.1-6.3c0.1-2.1,0.3-4.2,0.5-6.3
			c0.1-1.1,0.2-2.1,0.4-3.1l0.5-3.1c0.3-2.1,0.7-4.2,1.2-6.2c1.8-8.3,4.5-16.4,8-24.2l2.8-5.8c1-1.9,2.1-3.7,3.1-5.6l0.8-1.4
			l0.8-1.4l1.7-2.7c1.1-1.8,2.3-3.6,3.6-5.3l1.8-2.6c0.6-0.9,1.3-1.7,1.9-2.5c1.3-1.7,2.6-3.4,4-5s2.8-3.2,4.2-4.8l4.3-4.7
			c5.9-6.1,12.2-11.7,18.8-17c6.6-5.2,13.4-10.1,20.5-14.6l2.6-1.7l2.7-1.6c1.8-1.1,3.6-2.2,5.4-3.2l5.4-3.1l5.5-3
			c7.4-3.9,14.8-7.6,22.4-10.9c7.6-3.3,15.2-6.5,22.9-9.4c7.7-2.9,15.5-5.6,23.4-8.1c2-0.6,3.9-1.2,5.9-1.8s3.9-1.2,5.9-1.8
			c3.9-1.1,7.9-2.2,11.9-3.3c15.9-4.2,31.9-7.7,48.1-10.4c8.1-1.4,16.2-2.5,24.3-3.5c8.1-1,16.3-1.7,24.4-2.1L481.5,574.9z"/>
	</g>
</g>
<g id="Layer_2" class="st14">
	<g>
		<g>
			<g>
				<rect x="155.5" y="650.2" class="st15" width="0.9" height="0.9"/>
				<circle class="st16" cx="156" cy="650.6" r="0.5"/>
			</g>
		</g>
	</g>
	<g>
		<g>
			<g>
				<rect x="236.5" y="628.2" class="st15" width="0.9" height="0.9"/>
				<circle class="st16" cx="237" cy="628.7" r="0.5"/>
			</g>
		</g>
	</g>
	<g>
		<g>
			<g>
				<rect x="210.5" y="591.2" class="st15" width="1" height="1"/>
				<circle class="st16" cx="211" cy="591.7" r="0.5"/>
			</g>
		</g>
	</g>
	<g>
		<g>
			<g>
				<rect x="347.5" y="501" class="st15" width="0.9" height="0.9"/>
				<circle class="st16" cx="348" cy="501.5" r="0.5"/>
			</g>
		</g>
	</g>
	<g>
		<g>
			<g>
				<rect x="335.5" y="566.1" class="st15" width="0.9" height="0.9"/>
				<circle class="st16" cx="336" cy="566.6" r="0.5"/>
			</g>
		</g>
	</g>
	<g>
		<g>
			<g>
				<rect x="344.5" y="561.3" class="st15" width="0.9" height="0.9"/>
				<circle class="st16" cx="345" cy="561.7" r="0.5"/>
			</g>
		</g>
	</g>
	<g>
		<g>
			<g>
				<rect x="371.5" y="513.7" class="st15" width="0.9" height="0.9"/>
				<circle class="st16" cx="372" cy="514.2" r="0.5"/>
			</g>
		</g>
	</g>
	<g>
		<g>
			<g>
				<rect x="358.5" y="437.7" class="st15" width="1" height="1"/>
				<circle class="st16" cx="359" cy="438.2" r="0.5"/>
			</g>
		</g>
	</g>
	<g>
		<g>
			<g>
				<rect x="365.5" y="565.6" class="st15" width="0.9" height="0.9"/>
				<circle class="st16" cx="366" cy="566.1" r="0.5"/>
			</g>
		</g>
	</g>
	<g>
		<g>
			<g>
				<rect x="60.5" y="641.1" class="st15" width="1" height="1"/>
				<circle class="st16" cx="61" cy="641.6" r="0.5"/>
			</g>
		</g>
	</g>
	<g>
		<g>
			<g>
				<rect x="168.5" y="684.4" class="st15" width="1" height="1"/>
				<circle class="st16" cx="169" cy="684.9" r="0.5"/>
			</g>
		</g>
	</g>
	<g>
		<g>
			<g>
				<rect x="14.5" y="661.8" class="st15" width="0.9" height="0.9"/>
				<circle class="st16" cx="15" cy="662.3" r="0.5"/>
			</g>
		</g>
	</g>
	<g>
		<g>
			<g>
				<rect x="264.5" y="340.4" class="st15" width="0.9" height="0.9"/>
				<circle class="st16" cx="265" cy="340.9" r="0.5"/>
			</g>
		</g>
	</g>
	<g>
		<g>
			<g>
				<rect x="137.5" y="335.6" class="st15" width="1" height="1"/>
				<circle class="st16" cx="138" cy="336.1" r="0.5"/>
			</g>
		</g>
	</g>
	<g>
		<g>
			<g>
				<rect x="177.5" y="448.9" class="st15" width="0.9" height="0.9"/>
				<circle class="st16" cx="178" cy="449.4" r="0.5"/>
			</g>
		</g>
	</g>
	<g>
		<g>
			<g>
				<rect x="245.5" y="447.5" class="st15" width="0.9" height="0.9"/>
				<circle class="st16" cx="246" cy="448" r="0.5"/>
			</g>
		</g>
	</g>
	<g>
		<g>
			<g>
				<rect x="91.5" y="539.7" class="st15" width="0.9" height="0.9"/>
				<circle class="st16" cx="92" cy="540.1" r="0.5"/>
			</g>
		</g>
	</g>
	<g>
		<g>
			<g>
				<rect x="168.5" y="249.3" class="st15" width="0.9" height="0.9"/>
				<circle class="st16" cx="169" cy="249.7" r="0.5"/>
			</g>
		</g>
	</g>
	<g>
		<g>
			<g>
				<rect x="357.5" y="258.4" class="st15" width="1" height="1"/>
				<circle class="st16" cx="358" cy="258.9" r="0.5"/>
			</g>
		</g>
	</g>
	<g>
		<g>
			<g>
				<rect x="340.5" y="69.6" class="st15" width="0.9" height="0.9"/>
				<circle class="st16" cx="341" cy="70.1" r="0.5"/>
			</g>
		</g>
	</g>
	<g>
		<g>
			<g>
				<rect x="206.5" y="23.4" class="st15" width="1" height="1"/>
				<circle class="st16" cx="207" cy="23.9" r="0.5"/>
			</g>
		</g>
	</g>
	<g>
		<g>
			<g>
				<rect x="106.5" y="143.9" class="st15" width="1" height="1"/>
				<circle class="st16" cx="107" cy="144.4" r="0.5"/>
			</g>
		</g>
	</g>
	<g>
		<g>
			<g>
				<rect x="10.5" y="267.7" class="st15" width="0.9" height="0.9"/>
				<circle class="st16" cx="11" cy="268.2" r="0.5"/>
			</g>
		</g>
	</g>
	<g>
		<g>
			<g>
				<rect x="254.5" y="104.5" class="st15" width="1" height="1"/>
				<circle class="st16" cx="255" cy="105" r="0.5"/>
			</g>
		</g>
	</g>
	<g>
		<g>
			<g>
				<rect x="176.5" y="562.6" class="st15" width="1" height="1"/>
				<circle class="st16" cx="177" cy="563.1" r="0.5"/>
			</g>
		</g>
	</g>
	<g>
		<g>
			<g>
				<rect x="275.5" y="458.4" class="st15" width="0.9" height="0.9"/>
				<circle class="st16" cx="276" cy="458.9" r="0.5"/>
			</g>
		</g>
	</g>
	<g>
		<g>
			<g>
				<rect x="263.4" y="528.2" class="st15" width="1.2" height="1.2"/>
				<circle class="st16" cx="264" cy="528.8" r="0.6"/>
			</g>
		</g>
	</g>
	<g>
		<g>
			<g>
				<rect x="298.4" y="600.2" class="st15" width="1.2" height="1.2"/>
				<circle class="st16" cx="299" cy="600.8" r="0.6"/>
			</g>
		</g>
	</g>
	<g>
		<g>
			<g>
				<rect x="104.3" y="660.8" class="st15" width="1.4" height="1.4"/>
				<circle class="st16" cx="105" cy="661.5" r="0.7"/>
			</g>
		</g>
	</g>
	<g>
		<g>
			<g>
				<rect x="136.4" y="601.6" class="st15" width="1.2" height="1.2"/>
				<circle class="st16" cx="137" cy="602.2" r="0.6"/>
			</g>
		</g>
	</g>
	<g>
		<g>
			<g>
				<rect x="188.9" y="631.8" class="st15" width="2.3" height="2.3"/>
				<circle class="st16" cx="190" cy="632.9" r="1.1"/>
			</g>
		</g>
	</g>
	<g>
		<g>
			<g>
				<rect x="281.5" y="560.7" class="st15" width="3" height="3"/>
				<circle class="st16" cx="283" cy="562.2" r="1.5"/>
			</g>
		</g>
	</g>
	<g>
		<g>
			<g>
				<rect x="325.8" y="535.7" class="st15" width="4.4" height="4.4"/>
				<circle class="st16" cx="328" cy="537.9" r="2.2"/>
			</g>
		</g>
	</g>
	<g>
		<g>
			<g>
				<rect x="312.7" y="443.6" class="st15" width="2.6" height="2.6"/>
				<circle class="st16" cx="314" cy="444.9" r="1.3"/>
			</g>
		</g>
	</g>
	<g>
		<g>
			<g>
				<rect x="109.9" y="615.4" class="st15" width="2.2" height="2.2"/>
				<circle class="st16" cx="111" cy="616.5" r="1.1"/>
			</g>
		</g>
	</g>
	<g>
		<g>
			<g>
				<rect x="371.8" y="505.5" class="st15" width="2.4" height="2.4"/>
				<circle class="st16" cx="373" cy="506.7" r="1.2"/>
			</g>
		</g>
	</g>
	<g>
		<g>
			<g>
				<rect x="361.2" y="493.2" class="st15" width="3.5" height="3.5"/>
				<circle class="st16" cx="363" cy="495" r="1.8"/>
			</g>
		</g>
	</g>
	<g>
		<g>
			<g>
				<rect x="360.9" y="518" class="st15" width="2.2" height="2.2"/>
				<circle class="st16" cx="362" cy="519.1" r="1.1"/>
			</g>
		</g>
	</g>
	<g>
		<g>
			<g>
				<rect x="374.9" y="524.5" class="st15" width="2.1" height="2.1"/>
				<circle class="st16" cx="376" cy="525.5" r="1.1"/>
			</g>
		</g>
	</g>
	<g>
		<g>
			<g>
				<rect x="349.3" y="509.2" class="st15" width="3.3" height="3.3"/>
				<circle class="st16" cx="351" cy="510.9" r="1.7"/>
			</g>
		</g>
	</g>
	<g>
		<g>
			<g>
				<rect x="212.9" y="25.7" class="st15" width="2.3" height="2.3"/>
				<circle class="st16" cx="214" cy="26.9" r="1.1"/>
			</g>
		</g>
	</g>
	<g>
		<g>
			<g>
				<rect x="204.2" y="48.9" class="st15" width="1.6" height="1.6"/>
				<circle class="st16" cx="205" cy="49.7" r="0.8"/>
			</g>
		</g>
	</g>
	<g>
		<g>
			<g>
				<rect x="296.8" y="46.3" class="st15" width="2.4" height="2.4"/>
				<circle class="st16" cx="298" cy="47.5" r="1.2"/>
			</g>
		</g>
	</g>
	<g>
		<g>
			<g>
				<rect x="333.8" y="45.9" class="st15" width="4.4" height="4.4"/>
				<circle class="st16" cx="336" cy="48.1" r="2.2"/>
			</g>
		</g>
	</g>
	<g>
		<g>
			<g>
				<rect x="334.4" y="72.7" class="st15" width="1.2" height="1.2"/>
				<circle class="st16" cx="335" cy="73.3" r="0.6"/>
			</g>
		</g>
	</g>
	<g>
		<g>
			<g>
				<rect x="362" y="72.9" class="st15" width="2" height="2"/>
				<circle class="st16" cx="363" cy="73.9" r="1"/>
			</g>
		</g>
	</g>
	<g>
		<g>
			<g>
				<rect x="350.3" y="51" class="st15" width="1.5" height="1.5"/>
				<circle class="st16" cx="351" cy="51.7" r="0.7"/>
			</g>
		</g>
	</g>
	<g>
		<g>
			<g>
				<rect x="341.2" y="63.1" class="st15" width="3.6" height="3.6"/>
				<circle class="st16" cx="343" cy="64.9" r="1.8"/>
			</g>
		</g>
	</g>
	<g>
		<g>
			<g>
				<rect x="337.4" y="76.1" class="st15" width="3.3" height="3.3"/>
				<circle class="st16" cx="339" cy="77.7" r="1.6"/>
			</g>
		</g>
	</g>
	<g>
		<g>
			<g>
				<rect x="234.4" y="85.8" class="st15" width="1.2" height="1.2"/>
				<circle class="st16" cx="235" cy="86.4" r="0.6"/>
			</g>
		</g>
	</g>
	<g>
		<g>
			<g>
				<rect x="265.2" y="120.9" class="st15" width="4.2" height="4.2"/>
				<circle class="st16" cx="267.3" cy="123" r="2.1"/>
			</g>
		</g>
	</g>
	<g>
		<g>
			<g>
				<rect x="266.4" y="107.4" class="st15" width="3.2" height="3.2"/>
				<circle class="st16" cx="268" cy="109" r="1.6"/>
			</g>
		</g>
	</g>
	<g>
		<g>
			<g>
				<rect x="250.6" y="86" class="st15" width="2.7" height="2.7"/>
				<circle class="st16" cx="252" cy="87.4" r="1.4"/>
			</g>
		</g>
	</g>
	<g>
		<g>
			<g>
				<rect x="114.5" y="219.5" class="st15" width="3.1" height="3.1"/>
				<circle class="st16" cx="116" cy="221.1" r="1.5"/>
			</g>
		</g>
	</g>
	<g>
		<g>
			<g>
				<rect x="110.3" y="257.2" class="st15" width="1.4" height="1.4"/>
				<circle class="st16" cx="111" cy="257.8" r="0.7"/>
			</g>
		</g>
	</g>
	<g>
		<g>
			<g>
				<rect x="142.8" y="221.1" class="st15" width="4.3" height="4.3"/>
				<circle class="st16" cx="145" cy="223.3" r="2.2"/>
			</g>
		</g>
	</g>
	<g>
		<g>
			<g>
				<rect x="91.5" y="243.2" class="st15" width="1.1" height="1.1"/>
				<circle class="st16" cx="92" cy="243.7" r="0.5"/>
			</g>
		</g>
	</g>
	<g>
		<g>
			<g>
				<rect x="131.8" y="257" class="st15" width="4.4" height="4.4"/>
				<circle class="st16" cx="134" cy="259.2" r="2.2"/>
			</g>
		</g>
	</g>
	<g>
		<g>
			<g>
				<rect x="196.2" y="225.6" class="st15" width="1.6" height="1.6"/>
				<circle class="st16" cx="197" cy="226.4" r="0.8"/>
			</g>
		</g>
	</g>
	<g>
		<g>
			<g>
				<rect x="249.8" y="175.7" class="st15" width="2.3" height="2.3"/>
				<circle class="st16" cx="250.9" cy="176.9" r="1.2"/>
			</g>
			<g>
				<rect x="234.5" y="176.6" class="st15" width="2.4" height="2.4"/>
				<circle class="st16" cx="235.7" cy="177.8" r="1.2"/>
			</g>
		</g>
	</g>
	<g>
		<g>
			<g>
				<rect x="269" y="222.8" class="st15" width="4.1" height="4.1"/>
				<circle class="st16" cx="271" cy="224.8" r="2"/>
			</g>
		</g>
	</g>
	<g>
		<g>
			<g>
				<rect x="191.5" y="337.1" class="st15" width="3.4" height="3.4"/>
				<circle class="st16" cx="193.2" cy="338.8" r="1.7"/>
			</g>
			<g>
				<rect x="200.8" y="330.4" class="st15" width="2.3" height="2.3"/>
				<circle class="st16" cx="201.9" cy="331.6" r="1.2"/>
			</g>
			<g>
				<rect x="212.2" y="314.3" class="st15" width="1.9" height="1.9"/>
				<circle class="st16" cx="213.2" cy="315.3" r="0.9"/>
			</g>
			<g>
				<rect x="205.9" y="302.3" class="st15" width="3.8" height="3.8"/>
				<circle class="st16" cx="207.8" cy="304.2" r="1.9"/>
			</g>
		</g>
	</g>
	<g>
		<g>
			<g>
				<rect x="21.8" y="428.4" class="st15" width="4.3" height="4.3"/>
				<circle class="st16" cx="24" cy="430.6" r="2.2"/>
			</g>
		</g>
	</g>
	<g>
		<g>
			<g>
				<rect x="61.2" y="419.3" class="st15" width="3.5" height="3.5"/>
				<circle class="st16" cx="63" cy="421.1" r="1.8"/>
			</g>
		</g>
	</g>
	<g>
		<g>
			<g>
				<rect x="34.4" y="511.5" class="st15" width="1.1" height="1.1"/>
				<circle class="st16" cx="35" cy="512.1" r="0.6"/>
			</g>
		</g>
	</g>
	<g>
		<g>
			<g>
				<rect x="33.5" y="609" class="st15" width="2.9" height="2.9"/>
				<circle class="st16" cx="35" cy="610.5" r="1.5"/>
			</g>
		</g>
	</g>
	<g>
		<g>
			<g>
				<rect x="63.7" y="684.6" class="st15" width="2.6" height="2.6"/>
				<circle class="st16" cx="65" cy="685.9" r="1.3"/>
			</g>
		</g>
	</g>
	<g>
		<g>
			<g>
				<rect x="322.6" y="423.3" class="st15" width="2.7" height="2.7"/>
				<circle class="st16" cx="324" cy="424.6" r="1.4"/>
			</g>
		</g>
	</g>
	<g>
		<g>
			<g>
				<rect x="309.9" y="362.6" class="st15" width="3.3" height="3.3"/>
				<circle class="st16" cx="311.5" cy="364.3" r="1.6"/>
			</g>
		</g>
	</g>
	<g>
		<g>
			<g>
				<rect x="325.2" y="178.4" class="st15" width="3.6" height="3.6"/>
				<circle class="st16" cx="327" cy="180.3" r="1.8"/>
			</g>
		</g>
	</g>
	<g>
		<g>
			<g>
				<rect x="354.8" y="334.3" class="st15" width="4.3" height="4.3"/>
				<circle class="st16" cx="357" cy="336.5" r="2.2"/>
			</g>
		</g>
	</g>
</g>
</svg>
