<svg xmlns="http://www.w3.org/2000/svg" viewBox="0 0 25.2 20.5"><defs><style>.cls-1{fill:#fff;}</style></defs><title>Asset 3</title><g id="Layer_2" data-name="Layer 2"><g id="Capa_1" data-name="Capa 1"><g id="_Group_" data-name="&lt;Group&gt;"><path id="_Path_" data-name="&lt;Path&gt;" class="cls-1" d="M0,18.2a14.33,14.33,0,0,0,7.9,2.3A14.58,14.58,0,0,0,22.6,5.1a9.58,9.58,0,0,0,2.6-2.7,9.47,9.47,0,0,1-3,.8A5.13,5.13,0,0,0,24.5.3a12,12,0,0,1-3.3,1.3,5.19,5.19,0,0,0-8.8,4.8A14.9,14.9,0,0,1,1.7,1,5.13,5.13,0,0,0,3.3,7.9,5.19,5.19,0,0,1,1,7.3a5.13,5.13,0,0,0,4.2,5.1,5.86,5.86,0,0,1-2.3.1,5.13,5.13,0,0,0,4.8,3.6A10.56,10.56,0,0,1,0,18.2Z"/></g></g></g></svg>