<?xml version="1.0" encoding="utf-8"?>
<!-- Generator: Adobe Illustrator 21.0.1, SVG Export Plug-In . SVG Version: 6.00 Build 0)  -->
<svg version="1.1" id="Layer_1" xmlns="http://www.w3.org/2000/svg" xmlns:xlink="http://www.w3.org/1999/xlink" x="0px" y="0px"
	 viewBox="0 0 100 100" style="enable-background:new 0 0 100 100;" xml:space="preserve">
<style type="text/css">
	.st0{fill:#2D4559;}
</style>
<path class="st0" d="M54.2,11.9l10.3,15.4c1.2,1.7,3.3,2.9,5.3,3l18.4,0.3c5.4,0,8.4,6.5,5,10.7L81.8,55.8c-1.4,1.6-1.8,4-1.1,6
	l5.5,17.8c1.5,5.2-3.5,10.1-8.6,8.1l-17.3-6.4c-2-0.8-4.3-0.5-6.2,0.8L39,92.6c-4.5,3.2-10.7-0.2-10.4-5.7l0.8-18.5
	c0.2-2.2-0.8-4.3-2.6-5.5L12.2,51.9c-4.4-3.2-3.1-10.3,2.2-11.6l17.7-4.9c2.1-0.6,3.8-2.2,4.4-4.2l6.1-17.5
	C44.2,8.3,51.1,7.4,54.2,11.9z"/>
</svg>
